<svg width="193" height="148" viewBox="0 0 193 148" fill="none" xmlns="http://www.w3.org/2000/svg">
<path d="M70.4531 33.7423C70.1221 32.3059 69.3138 31.0241 68.1604 30.1063C67.0069 29.1885 65.5764 28.6888 64.1023 28.689H16.709C14.9807 28.689 13.3231 29.3755 12.101 30.5976C10.8789 31.8197 10.1924 33.4772 10.1924 35.2056V140.549C10.1924 142.277 10.8789 143.935 12.101 145.157C13.3231 146.379 14.9807 147.066 16.709 147.066H167.183C168.911 147.066 170.569 146.379 171.791 145.157C173.013 143.935 173.7 142.277 173.7 140.549V52.0598C173.7 50.3315 173.013 48.674 171.791 47.4519C170.569 46.2298 168.911 45.5432 167.183 45.5432H85.2812C81.8391 45.5438 78.4985 44.3771 75.8052 42.2336C73.1119 40.0902 71.2251 37.0967 70.4531 33.7423Z" fill="#3079E3"/>
<path opacity="0.6" d="M70.4531 33.7423C70.1221 32.3059 69.3138 31.0241 68.1604 30.1063C67.0069 29.1885 65.5764 28.6888 64.1023 28.689H16.709C14.9807 28.689 13.3231 29.3755 12.101 30.5976C10.8789 31.8197 10.1924 33.4772 10.1924 35.2056V140.549C10.1924 142.277 10.8789 143.935 12.101 145.157C13.3231 146.379 14.9807 147.066 16.709 147.066H167.183C168.911 147.066 170.569 146.379 171.791 145.157C173.013 143.935 173.7 142.277 173.7 140.549V52.0598C173.7 50.3315 173.013 48.674 171.791 47.4519C170.569 46.2298 168.911 45.5432 167.183 45.5432H85.2812C81.8391 45.5438 78.4985 44.3771 75.8052 42.2336C73.1119 40.0902 71.2251 37.0967 70.4531 33.7423Z" fill="black"/>
<path opacity="0.22" d="M53.7246 0.934082L57.9485 14.613C58.4878 16.3539 59.6959 17.8097 61.3076 18.6605C62.9193 19.5114 64.8029 19.6877 66.5445 19.1509L80.2175 14.927L53.7246 0.934082Z" fill="#3079E3"/>
<path d="M53.7242 0.934082L4.84976 16.0348C3.98698 16.2999 3.18492 16.7324 2.48947 17.3077C1.79402 17.8831 1.21884 18.5899 0.796809 19.3877C0.374781 20.1856 0.114195 21.0588 0.0299643 21.9574C-0.0542664 22.856 0.039509 23.7625 0.305924 24.6248L28.2088 114.957C28.4751 115.819 28.9087 116.621 29.4849 117.315C30.061 118.01 30.7684 118.585 31.5667 119.006C32.3649 119.428 33.2384 119.688 34.1371 119.771C35.0359 119.855 35.9424 119.761 36.8047 119.495L99.3581 100.17C100.22 99.9042 101.022 99.4712 101.717 98.8956C102.411 98.32 102.986 97.6131 103.407 96.8153C103.829 96.0176 104.089 95.1446 104.173 94.2462C104.257 93.3479 104.163 92.4418 103.896 91.5798L80.1993 14.927L53.7242 0.934082Z" fill="#3079E3"/>
<path opacity="0.8" d="M53.7242 0.934082L4.84976 16.0348C3.98698 16.2999 3.18492 16.7324 2.48947 17.3077C1.79402 17.8831 1.21884 18.5899 0.796809 19.3877C0.374781 20.1856 0.114195 21.0588 0.0299643 21.9574C-0.0542664 22.856 0.039509 23.7625 0.305924 24.6248L28.2088 114.957C28.4751 115.819 28.9087 116.621 29.4849 117.315C30.061 118.01 30.7684 118.585 31.5667 119.006C32.3649 119.428 33.2384 119.688 34.1371 119.771C35.0359 119.855 35.9424 119.761 36.8047 119.495L99.3581 100.17C100.22 99.9042 101.022 99.4712 101.717 98.8956C102.411 98.32 102.986 97.6131 103.407 96.8153C103.829 96.0176 104.089 95.1446 104.173 94.2462C104.257 93.3479 104.163 92.4418 103.896 91.5798L80.1993 14.927L53.7242 0.934082Z" fill="white"/>
<g opacity="0.28">
<path d="M80.0206 96.2232L39.3571 108.782C38.5966 109.016 37.7746 108.939 37.0708 108.568C36.367 108.197 35.8386 107.563 35.6012 106.804C35.3697 106.043 35.4484 105.222 35.8202 104.52C36.1921 103.817 36.8268 103.29 37.5858 103.054L78.2493 90.4886C79.0105 90.2552 79.8332 90.3331 80.5372 90.7051C81.2411 91.077 81.769 91.7128 82.0052 92.4732C82.2367 93.2336 82.158 94.0548 81.7861 94.7574C81.4143 95.46 80.7796 95.9869 80.0206 96.2232Z" fill="#3079E3"/>
</g>
<g opacity="0.28">
<path d="M36.2614 22.5159L14.7567 29.1569C13.9962 29.3889 13.1749 29.3111 12.4715 28.9405C11.7681 28.57 11.2395 27.9366 11.0008 27.1783C10.7691 26.417 10.8477 25.5951 11.2194 24.8915C11.5912 24.188 12.2259 23.6599 12.9854 23.4223L34.4901 16.7813C35.2506 16.5461 36.0733 16.6224 36.7775 16.9934C37.4818 17.3644 38.01 17.9998 38.246 18.76C38.4777 19.5213 38.3991 20.3432 38.0274 21.0468C37.6557 21.7503 37.0209 22.2784 36.2614 22.5159Z" fill="#3079E3"/>
</g>
<g opacity="0.28">
<path d="M53.8043 29.5582L18.2593 40.5357C17.5004 40.7636 16.6823 40.683 15.9824 40.3115C15.2826 39.9399 14.7575 39.3073 14.5211 38.551C14.2877 37.7914 14.3649 36.9702 14.7358 36.2673C15.1067 35.5644 15.741 35.0372 16.4998 34.8011L52.0448 23.8236C52.8053 23.59 53.6273 23.667 54.3311 24.0378C55.0349 24.4086 55.5633 25.043 55.8007 25.8022C56.0303 26.565 55.9494 27.3876 55.5755 28.091C55.2016 28.7945 54.565 29.3217 53.8043 29.5582Z" fill="#3079E3"/>
</g>
<g opacity="0.28">
<path d="M73.6536 35.8915L21.7816 51.8867C21.0219 52.1201 20.2007 52.0429 19.4978 51.6721C18.7949 51.3012 18.2677 50.6669 18.0316 49.9081C17.7996 49.1476 17.8774 48.3263 18.248 47.6229C18.6185 46.9195 19.2519 46.3909 20.0102 46.1521L71.8823 30.1569C72.642 29.9251 73.4625 30.003 74.1649 30.3737C74.8674 30.7443 75.3948 31.3776 75.6323 32.1355C75.8659 32.896 75.7888 33.718 75.418 34.4218C75.0473 35.1257 74.4129 35.654 73.6536 35.8915Z" fill="#3079E3"/>
</g>
<g opacity="0.28">
<path d="M77.1669 47.2674L47.0128 56.5861C46.2524 56.8176 45.4312 56.7389 44.7286 56.367C44.026 55.9952 43.4991 55.3605 43.2628 54.6015C43.0311 53.8418 43.109 53.0213 43.4796 52.3189C43.8503 51.6164 44.4836 51.089 45.2415 50.8515L75.3955 41.5328C76.1568 41.3027 76.978 41.382 77.6812 41.7536C78.3843 42.1251 78.9126 42.7589 79.1515 43.5174C79.383 44.2778 79.3042 45.099 78.9324 45.8016C78.5606 46.5042 77.9259 47.0311 77.1669 47.2674Z" fill="#3079E3"/>
</g>
<g opacity="0.28">
<path d="M33.1872 60.8565L25.3021 63.2913C24.5417 63.5249 23.7196 63.4479 23.0158 63.0771C22.312 62.7063 21.7836 62.0719 21.5462 61.3127C21.3129 60.5514 21.3907 59.7287 21.7627 59.0248C22.1347 58.3208 22.7704 57.7929 23.5308 57.5567L31.4159 55.1219C32.1763 54.89 32.9976 54.9677 33.701 55.3383C34.4044 55.7089 34.933 56.3422 35.1718 57.1006C35.4019 57.8618 35.3225 58.6831 34.951 59.3862C34.5795 60.0893 33.9457 60.6176 33.1872 60.8565Z" fill="#3079E3"/>
</g>
<g opacity="0.28">
<path d="M80.6852 58.6476L28.8131 74.6724C28.0527 74.904 27.2315 74.8252 26.5289 74.4534C25.8263 74.0816 25.2994 73.4468 25.0631 72.6878C24.8297 71.9282 24.9069 71.107 25.2778 70.4041C25.6486 69.7012 26.283 69.174 27.0418 68.9379L78.9138 52.913C79.6735 52.6812 80.494 52.7591 81.1964 53.1298C81.8989 53.5004 82.4264 54.1337 82.6638 54.8916C82.8974 55.6521 82.8204 56.4741 82.4496 57.1779C82.0788 57.8818 81.4444 58.4102 80.6852 58.6476Z" fill="#3079E3"/>
</g>
<g opacity="0.28">
<path d="M64.1808 76.2058L32.3265 86.0459C31.5668 86.2777 30.7463 86.1997 30.0439 85.8291C29.3414 85.4584 28.814 84.8251 28.5765 84.0672C28.3445 83.3068 28.4223 82.4855 28.7929 81.7821C29.1634 81.0786 29.7968 80.5501 30.5552 80.3113L62.4094 70.4712C63.1707 70.2395 63.9926 70.3181 64.6962 70.6899C65.3997 71.0616 65.9278 71.6964 66.1654 72.4558C66.3985 73.2163 66.3205 74.0382 65.9484 74.7412C65.5764 75.4442 64.9407 75.9709 64.1808 76.2058Z" fill="#3079E3"/>
</g>
<g opacity="0.28">
<path d="M84.1952 70.0267L75.694 72.6511C74.9328 72.8828 74.1108 72.8042 73.4073 72.4325C72.7037 72.0607 72.1756 71.426 71.9381 70.6665C71.7066 69.9061 71.7853 69.0849 72.1572 68.3823C72.529 67.6797 73.1637 67.1528 73.9227 66.9165L82.4239 64.2921C83.1835 64.0587 84.0048 64.1359 84.7076 64.5068C85.4105 64.8776 85.9377 65.512 86.1739 66.2708C86.4074 67.0313 86.3304 67.8533 85.9596 68.5571C85.5888 69.2609 84.9545 69.7893 84.1952 70.0267Z" fill="#3079E3"/>
</g>
<g opacity="0.28">
<path d="M87.708 81.413L35.8478 97.4082C35.0866 97.6416 34.2639 97.5637 33.5599 97.1917C32.856 96.8198 32.3281 96.184 32.0919 95.4236C31.8588 94.6632 31.9368 93.8413 32.3088 93.1383C32.6809 92.4353 33.3166 91.9085 34.0765 91.6736L85.9426 75.6487C86.7038 75.4187 87.5251 75.498 88.2282 75.8695C88.9314 76.2411 89.4597 76.8748 89.6985 77.6333C89.8175 78.0122 89.8604 78.4108 89.8246 78.8063C89.7889 79.2018 89.6752 79.5862 89.4902 79.9376C89.3051 80.2889 89.0524 80.6001 88.7465 80.8534C88.4407 81.1066 88.0877 81.2968 87.708 81.413Z" fill="#3079E3"/>
</g>
<path d="M109.945 7.49854L58.8901 10.6502C57.9881 10.7038 57.1056 10.9348 56.293 11.3298C55.4804 11.7249 54.7537 12.2764 54.1544 12.9527C53.5552 13.6289 53.0952 14.4167 52.8008 15.271C52.5064 16.1252 52.3833 17.0291 52.4387 17.931L58.2621 112.291C58.3165 113.194 58.5484 114.077 58.9445 114.889C59.3407 115.702 59.8933 116.429 60.5708 117.027C61.2483 117.626 62.0372 118.085 62.8925 118.379C63.7477 118.672 64.6524 118.794 65.5548 118.737L130.898 114.702C131.799 114.648 132.681 114.416 133.492 114.021C134.303 113.625 135.029 113.074 135.626 112.397C136.224 111.721 136.682 110.933 136.975 110.079C137.268 109.226 137.389 108.322 137.332 107.422L132.415 27.3445L109.945 7.49854Z" fill="#3079E3"/>
<path opacity="0.8" d="M109.945 7.49854L58.8901 10.6502C57.9881 10.7038 57.1056 10.9348 56.293 11.3298C55.4804 11.7249 54.7537 12.2764 54.1544 12.9527C53.5552 13.6289 53.0952 14.4167 52.8008 15.271C52.5064 16.1252 52.3833 17.0291 52.4387 17.931L58.2621 112.291C58.3165 113.194 58.5484 114.077 58.9445 114.889C59.3407 115.702 59.8933 116.429 60.5708 117.027C61.2483 117.626 62.0372 118.085 62.8925 118.379C63.7477 118.672 64.6524 118.794 65.5548 118.737L130.898 114.702C131.799 114.648 132.681 114.416 133.492 114.021C134.303 113.625 135.029 113.074 135.626 112.397C136.224 111.721 136.682 110.933 136.975 110.079C137.268 109.226 137.389 108.322 137.332 107.422L132.415 27.3445L109.945 7.49854Z" fill="white"/>
<g opacity="0.22">
<path d="M113.03 106.296L70.5475 108.92C69.7539 108.965 68.9745 108.695 68.3796 108.168C67.7847 107.641 67.4225 106.899 67.3721 106.106C67.3266 105.313 67.5961 104.534 68.1219 103.938C68.6477 103.342 69.3874 102.978 70.1802 102.925L112.662 100.306C113.456 100.259 114.236 100.528 114.832 101.054C115.428 101.58 115.792 102.321 115.844 103.114C115.891 103.909 115.621 104.69 115.094 105.286C114.566 105.882 113.824 106.245 113.03 106.296Z" fill="#3079E3"/>
</g>
<g opacity="0.22">
<path d="M87.891 24.3526L65.4206 25.7271C64.6273 25.7726 63.8481 25.5031 63.2524 24.9773C62.6567 24.4515 62.2926 23.7118 62.2393 22.919C62.1939 22.1248 62.4641 21.3447 62.9912 20.7489C63.5183 20.153 64.2594 19.7896 65.0533 19.7377L87.5237 18.3515C88.3167 18.3044 89.0961 18.5735 89.6912 19.0998C90.2863 19.6261 90.6487 20.3667 90.699 21.1595C90.7494 21.9551 90.4819 22.7383 89.9555 23.3369C89.429 23.9356 88.6865 24.3009 87.891 24.3526Z" fill="#3079E3"/>
</g>
<g opacity="0.22">
<path d="M103.279 35.3353L66.1524 37.622C65.3583 37.6707 64.5774 37.4024 63.981 36.8759C63.3846 36.3495 63.0214 35.6079 62.9711 34.814C62.924 34.0194 63.1937 33.2385 63.7211 32.6422C64.2485 32.046 64.9906 31.683 65.7851 31.6327L102.906 29.346C103.7 29.2973 104.481 29.5656 105.077 30.0921C105.674 30.6185 106.037 31.3601 106.087 32.154C106.134 32.9477 105.865 33.7277 105.339 34.3238C104.813 34.9198 104.073 35.2835 103.279 35.3353Z" fill="#3079E3"/>
</g>
<g opacity="0.22">
<path d="M121.07 46.1708L66.8879 49.5121C66.0916 49.5608 65.3086 49.292 64.7101 48.7646C64.1116 48.2372 63.7465 47.4941 63.6947 46.6981C63.6477 45.905 63.9168 45.1257 64.443 44.5305C64.9693 43.9354 65.7099 43.573 66.5028 43.5227L120.691 40.1756C121.485 40.1302 122.264 40.4006 122.859 40.9278C123.454 41.455 123.816 42.1962 123.867 42.9896C123.914 43.7813 123.646 44.5596 123.123 45.1554C122.599 45.7511 121.862 46.116 121.07 46.1708Z" fill="#3079E3"/>
</g>
<g opacity="0.22">
<path d="M121.807 58.054L90.308 59.9972C89.5143 60.0443 88.7343 59.7754 88.1383 59.2492C87.5422 58.7231 87.1785 57.9825 87.1267 57.1891C87.0781 56.3951 87.3464 55.6142 87.8728 55.0177C88.3993 54.4213 89.1408 54.0581 89.9348 54.0078L121.434 52.0647C122.228 52.016 123.009 52.2844 123.605 52.8108C124.201 53.3373 124.565 54.0788 124.615 54.8728C124.662 55.6664 124.393 56.4465 123.867 57.0425C123.341 57.6386 122.6 58.0022 121.807 58.054Z" fill="#3079E3"/>
</g>
<g opacity="0.22">
<path d="M75.8567 60.8873L67.6162 61.3968C66.8231 61.4438 66.0438 61.1748 65.4486 60.6485C64.8535 60.1222 64.4911 59.3816 64.4408 58.5888C64.3938 57.7951 64.6627 57.0151 65.1888 56.419C65.7149 55.823 66.4555 55.4593 67.2489 55.4075L75.4894 54.898C76.2836 54.8525 77.0637 55.1228 77.6595 55.6499C78.2554 56.1769 78.6189 56.9181 78.6707 57.712C78.7161 58.5056 78.4457 59.285 77.9185 59.8799C77.3912 60.4748 76.65 60.837 75.8567 60.8873Z" fill="#3079E3"/>
</g>
<g opacity="0.22">
<path d="M122.541 69.9387L68.3522 73.2799C67.5586 73.327 66.7785 73.0581 66.1825 72.532C65.5864 72.0059 65.2228 71.2652 65.1709 70.4719C65.1255 69.6776 65.3957 68.8976 65.9228 68.3017C66.4499 67.7059 67.1911 67.3424 67.9849 67.2906L122.167 63.9494C122.962 63.9023 123.743 64.172 124.339 64.6994C124.935 65.2268 125.298 65.9689 125.349 66.7633C125.396 67.5564 125.127 68.3358 124.6 68.9309C124.074 69.526 123.333 69.8884 122.541 69.9387Z" fill="#3079E3"/>
</g>
<g opacity="0.22">
<path d="M102.36 83.1136L69.0837 85.1693C68.2894 85.2148 67.5094 84.9445 66.9135 84.4174C66.3177 83.8904 65.9542 83.1492 65.9024 82.3553C65.857 81.5617 66.1274 80.7824 66.6546 80.1874C67.1818 79.5925 67.923 79.2303 68.7164 79.18L101.992 77.1243C102.786 77.0789 103.565 77.3493 104.16 77.8765C104.755 78.4038 105.117 79.145 105.168 79.9383C105.216 80.7317 104.948 81.512 104.421 82.1074C103.895 82.7029 103.153 83.0648 102.36 83.1136Z" fill="#3079E3"/>
</g>
<g opacity="0.22">
<path d="M123.268 81.8287L114.382 82.3737C113.589 82.4208 112.81 82.1517 112.215 81.6254C111.619 81.0991 111.257 80.3585 111.207 79.5657C111.158 78.7716 111.426 77.9907 111.953 77.3943C112.479 76.7979 113.221 76.4347 114.015 76.3844L122.901 75.8394C123.695 75.7907 124.476 76.059 125.072 76.5855C125.669 77.1119 126.032 77.8535 126.082 78.6474C126.128 79.4417 125.858 80.2217 125.331 80.8176C124.803 81.4134 124.062 81.7769 123.268 81.8287Z" fill="#3079E3"/>
</g>
<g opacity="0.22">
<path d="M124.004 93.7126L69.8213 97.0539C69.0277 97.1009 68.2476 96.8321 67.6516 96.3059C67.0555 95.7798 66.6919 95.0392 66.6401 94.2458C66.593 93.4522 66.8619 92.6721 67.388 92.0761C67.9141 91.48 68.6548 91.1163 69.4481 91.0645L123.637 87.7233C124.43 87.6763 125.209 87.9453 125.804 88.4716C126.399 88.9979 126.762 89.7385 126.812 90.5314C126.861 91.3254 126.592 92.1063 126.066 92.7027C125.539 93.2991 124.798 93.6623 124.004 93.7126Z" fill="#3079E3"/>
</g>
<path opacity="0.22" d="M109.944 7.49854L110.827 21.7876C110.882 22.6886 111.114 23.5698 111.51 24.3811C111.906 25.1923 112.457 25.9177 113.133 26.5156C113.81 27.1136 114.597 27.5726 115.45 27.8663C116.304 28.1599 117.207 28.2826 118.108 28.2272L132.415 27.3445L109.944 7.49854Z" fill="#3079E3"/>
<path opacity="0.5" d="M93.2269 43.1435C93.2179 42.4587 93.0718 41.7827 92.7972 41.1554C92.5226 40.528 92.125 39.9621 91.628 39.491C91.1309 39.02 90.5445 38.6533 89.9034 38.4127C89.2622 38.172 88.5793 38.0624 87.8951 38.0902H40.4425C36.8465 38.0902 33.3335 41.0108 32.6581 44.6067L13.9318 140.549C13.2328 144.145 15.5787 147.065 19.1747 147.065H169.649C173.245 147.065 176.728 144.151 177.433 140.549L192.877 61.461C193.576 57.8591 191.23 54.9444 187.634 54.9444H105.756C98.6475 54.9444 93.4697 50.0511 93.2269 43.1435Z" fill="#3079E3"/>
</svg>
