<svg width="16" height="16" viewBox="0 0 16 16" fill="none" xmlns="http://www.w3.org/2000/svg">
<path d="M6.92205 9.33694C6.98255 9.96294 7.08347 10.4289 7.2248 10.7349C7.36597 11.0409 7.61847 11.194 7.9823 11.1942C8.05055 11.1942 8.1118 11.1829 8.17255 11.1714C8.2338 11.1829 8.2943 11.1942 8.3623 11.1942C8.72547 11.194 8.97797 11.0409 9.1198 10.7349C9.2608 10.4289 9.36155 9.96294 9.42205 9.33694L9.74505 4.50444C9.80555 3.56244 9.8358 2.88636 9.8358 2.47619C9.8358 1.91752 9.68972 1.48202 9.39755 1.16969C9.10422 0.857023 8.71888 0.700606 8.24155 0.700439C8.21655 0.700439 8.1973 0.706189 8.17305 0.707189C8.1488 0.706189 8.1293 0.700439 8.10455 0.700439C7.62672 0.700439 7.24147 0.856856 6.9488 1.16969C6.6563 1.48219 6.51005 1.91777 6.51005 2.47644C6.51005 2.88661 6.5403 3.56269 6.6008 4.50469L6.92355 9.33694M8.1823 12.9589C7.71997 12.9593 7.3253 13.1054 6.9983 13.3974C6.67163 13.6908 6.5083 14.0456 6.5083 14.4619C6.5083 14.9336 6.67338 15.3035 7.00355 15.5717C7.33455 15.8407 7.72005 15.9762 8.1598 15.9762C8.60813 15.9759 8.9993 15.8429 9.3333 15.5774C9.66755 15.3117 9.8333 14.9399 9.8333 14.4617C9.8333 14.0454 9.67355 13.6905 9.35405 13.3972C9.03505 13.1057 8.6443 12.9589 8.1813 12.9589" fill="#AA2D2D"/>
</svg>
