<svg width="37" height="36" viewBox="0 0 37 36" fill="none" xmlns="http://www.w3.org/2000/svg">
<g clip-path="url(#clip0_326_672)">
<path d="M6.29199 4.5V7.137L6.53837 7.45312L15.292 18.387V31.5338L17.0852 30.1275L18.8425 28.7921C19.6862 32.8883 23.3301 36 27.667 36C32.6237 36 36.667 31.9568 36.667 27C36.667 22.0432 32.6237 18 27.667 18C25.5441 18 23.5844 18.765 22.042 20.0036V18.387L30.7956 7.45088L31.042 7.13587V4.5H6.29199ZM8.85812 6.75H28.477L20.3905 16.875H16.9457L8.85812 6.75ZM17.542 19.125H19.792V22.6406C19.1994 23.7037 18.8285 24.876 18.7019 26.0865L17.542 27V19.125ZM27.667 20.25C31.4065 20.25 34.417 23.2605 34.417 27C34.417 30.7395 31.4065 33.75 27.667 33.75C23.9275 33.75 20.917 30.7395 20.917 27C20.917 23.2605 23.9275 20.25 27.667 20.25ZM26.542 21.375V22.5709C25.2764 22.7824 24.292 23.8556 24.292 25.1741C24.29 25.5895 24.4043 25.9971 24.6217 26.3509C24.8392 26.7048 25.1513 26.9908 25.5227 27.1766L28.792 28.827C28.7951 28.8832 28.7863 28.9394 28.7662 28.992C28.7461 29.0446 28.7151 29.0924 28.6753 29.1322C28.6355 29.172 28.5877 29.203 28.5351 29.2231C28.4826 29.2432 28.4263 29.252 28.3701 29.2489H26.9639C26.9077 29.252 26.8514 29.2432 26.7988 29.2231C26.7463 29.203 26.6985 29.172 26.6587 29.1322C26.6189 29.0924 26.5879 29.0446 26.5678 28.992C26.5477 28.9394 26.5389 28.8832 26.542 28.827V28.125H24.292V28.8281C24.292 30.1466 25.2764 31.2188 26.542 31.4303V32.625H28.792V31.4291C30.0576 31.2176 31.042 30.1444 31.042 28.8259C31.042 27.9776 30.5717 27.2059 29.8112 26.8234L26.542 25.173C26.542 24.9221 26.713 24.7511 26.9639 24.7511H28.3701C28.621 24.7511 28.792 24.9221 28.792 25.173V25.875H31.042V25.1719C31.042 23.8534 30.0576 22.7812 28.792 22.5697V21.375H26.542Z" fill="#5ECA2A"/>
</g>
<defs>
<clipPath id="clip0_326_672">
<rect width="36" height="36" fill="white" transform="translate(0.666992)"/>
</clipPath>
</defs>
</svg>
