<?xml version="1.0" standalone="no"?>
<!DOCTYPE svg PUBLIC "-//W3C//DTD SVG 20010904//EN"
 "http://www.w3.org/TR/2001/REC-SVG-20010904/DTD/svg10.dtd">
<svg version="1.0" xmlns="http://www.w3.org/2000/svg"
 width="2514.000000pt" height="444.000000pt" viewBox="0 0 2514.000000 444.000000"
 preserveAspectRatio="xMidYMid meet">

<g transform="translate(0.000000,444.000000) scale(0.100000,-0.100000)"
fill="#d40000" stroke="none">
<path d="M370 3745 l0 -415 918 -3 c884 -4 1041 -9 1050 -35 2 -7 14 -12 26
-12 12 0 31 -7 42 -15 10 -8 29 -15 41 -15 12 0 28 -7 37 -15 8 -8 22 -15 31
-15 8 0 18 -7 21 -15 4 -8 10 -15 15 -15 15 0 99 -88 99 -103 0 -8 12 -27 27
-43 15 -16 28 -41 29 -57 1 -15 8 -35 15 -44 16 -19 18 -34 19 -215 2 -111 -1
-141 -14 -160 -9 -12 -16 -34 -16 -48 0 -14 -9 -44 -20 -65 -28 -56 -120 -155
-143 -155 -10 0 -28 -11 -38 -24 -11 -14 -32 -27 -48 -31 -16 -3 -32 -13 -35
-20 -3 -9 -18 -14 -40 -13 -19 1 -41 -4 -49 -10 -32 -27 -281 -36 -1119 -39
l-848 -3 0 -913 0 -912 523 1 c287 1 527 2 532 3 7 1 9 155 7 448 -4 514 -2
545 34 562 27 12 539 16 582 5 15 -5 25 -17 29 -36 3 -16 18 -39 33 -50 15
-11 36 -38 46 -59 11 -21 22 -39 25 -39 4 0 16 -17 27 -38 11 -21 34 -52 51
-69 17 -17 31 -39 31 -48 0 -9 14 -30 30 -47 17 -16 30 -35 30 -43 0 -7 11
-23 25 -36 13 -13 25 -31 25 -39 0 -8 12 -26 27 -40 14 -13 30 -37 35 -52 6
-16 14 -28 19 -28 5 0 9 -6 9 -13 0 -7 9 -20 20 -30 11 -9 20 -23 20 -31 0 -7
7 -19 15 -26 8 -7 43 -54 77 -104 33 -50 74 -103 90 -117 15 -14 28 -36 28
-47 0 -22 1 -22 208 -22 114 0 355 -2 536 -4 181 -2 345 -2 363 1 l33 6 -27
36 c-15 20 -33 42 -40 49 -7 7 -13 19 -13 27 0 7 -13 25 -30 38 -17 15 -30 35
-30 49 0 14 -11 30 -30 43 -18 12 -30 29 -30 42 0 11 -13 33 -30 46 -18 16
-30 35 -30 50 0 15 -9 28 -25 37 -14 8 -28 25 -32 39 -3 13 -18 37 -32 51 -27
27 -46 53 -58 80 -4 8 -20 26 -35 40 -15 13 -28 34 -28 46 0 12 -13 31 -30 44
-20 15 -30 32 -30 49 0 18 -10 32 -30 46 -16 11 -30 29 -30 40 0 11 -14 33
-30 49 -17 16 -30 37 -30 46 0 9 -20 36 -45 60 -25 24 -45 50 -45 58 0 8 -13
31 -30 52 -16 21 -30 49 -30 64 0 21 9 30 58 53 31 15 72 40 90 55 18 15 38
28 44 28 6 0 33 20 59 45 26 25 53 45 59 45 12 0 140 128 140 141 0 5 13 22
30 39 16 17 36 44 45 60 8 16 28 48 44 72 16 24 32 53 35 66 4 12 11 22 16 22
5 0 11 13 15 30 4 16 11 32 16 35 5 4 9 18 9 33 0 15 7 37 15 50 9 12 17 44
18 72 1 28 7 50 13 50 11 0 24 127 24 230 0 26 7 60 15 76 12 24 12 31 1 44
-10 10 -16 55 -20 146 -3 88 -10 140 -21 160 -8 16 -15 43 -15 61 0 17 -4 34
-9 37 -5 3 -12 26 -15 50 -4 24 -13 47 -21 50 -8 3 -15 15 -15 27 0 11 -13 41
-30 66 -16 24 -30 52 -30 62 0 11 -7 21 -15 25 -8 3 -15 13 -15 22 0 9 -20 39
-45 65 -25 26 -45 53 -45 60 0 15 -154 165 -188 183 -15 8 -40 28 -56 45 -17
17 -38 31 -47 31 -10 0 -22 6 -26 13 -4 7 -21 19 -37 27 -56 29 -66 35 -66 42
0 5 -8 8 -19 8 -10 0 -24 6 -30 14 -7 8 -27 18 -44 22 -33 7 -41 10 -95 37
-19 9 -44 17 -57 17 -12 0 -28 6 -34 14 -6 8 -36 17 -66 21 -30 3 -57 10 -60
15 -2 4 -35 11 -72 15 -38 4 -72 10 -78 15 -5 4 -59 10 -120 14 -60 4 -114 11
-119 16 -6 6 -378 10 -978 10 l-968 0 0 -415z"/>
<path d="M4689 4156 c-2 -2 -3 -187 -1 -410 l2 -406 1505 0 1505 0 0 394 c0
217 3 401 6 410 6 15 -131 16 -1503 16 -830 0 -1512 -2 -1514 -4z"/>
<path d="M8136 4152 c-2 -4 4 -25 14 -47 11 -22 19 -47 20 -56 0 -9 7 -22 15
-29 8 -7 15 -20 15 -30 0 -9 7 -31 16 -48 8 -18 12 -37 9 -43 -4 -6 2 -19 14
-30 12 -11 21 -26 21 -34 0 -18 39 -85 50 -85 4 0 8 -16 7 -35 -1 -19 6 -42
16 -53 9 -10 17 -25 17 -33 0 -8 7 -23 15 -33 8 -11 15 -28 15 -38 0 -10 5
-18 10 -18 6 0 10 -16 10 -35 0 -21 6 -38 14 -41 8 -3 17 -21 20 -40 4 -19 11
-34 16 -34 4 0 11 -13 15 -30 4 -16 10 -30 15 -30 4 0 11 -20 14 -45 4 -25 11
-45 16 -45 5 0 12 -10 16 -22 3 -12 13 -28 20 -36 8 -7 14 -23 14 -35 0 -12 7
-31 15 -41 8 -11 15 -27 15 -35 0 -9 14 -45 31 -81 18 -36 35 -72 39 -80 4 -9
11 -30 14 -47 4 -17 14 -37 22 -44 8 -6 14 -20 14 -30 0 -10 5 -21 10 -24 6
-3 10 -15 10 -27 0 -22 77 -185 91 -194 5 -3 9 -17 8 -32 -1 -15 6 -40 15 -57
9 -16 16 -36 16 -42 0 -7 4 -13 10 -13 5 0 12 -11 16 -25 3 -13 12 -29 20 -36
8 -6 14 -28 14 -49 0 -24 5 -40 15 -44 8 -3 15 -12 15 -19 0 -8 11 -35 25 -61
14 -26 25 -54 25 -63 0 -19 40 -102 58 -121 6 -7 12 -21 12 -30 0 -23 31 -104
47 -123 7 -9 11 -24 7 -33 -4 -10 -1 -16 8 -16 8 0 19 -17 25 -37 7 -21 17
-54 24 -74 l13 -36 18 33 c10 19 18 40 18 48 0 7 7 19 15 26 8 7 15 25 15 40
0 16 7 30 15 34 8 3 15 14 15 24 0 10 7 27 15 38 8 10 15 26 15 35 0 9 7 22
15 29 8 7 15 23 15 36 0 13 23 67 50 120 28 53 50 102 50 110 0 8 5 14 10 14
6 0 10 10 10 22 0 25 63 163 79 173 6 3 11 24 11 45 0 21 6 45 13 52 7 7 23
34 36 60 12 27 27 50 32 54 5 3 9 16 9 28 0 27 36 112 50 121 6 3 10 14 10 24
0 10 7 24 15 31 8 7 15 25 15 40 0 15 7 33 15 40 19 16 19 39 0 64 -8 11 -15
33 -15 48 0 16 -7 31 -15 34 -8 4 -15 14 -15 23 0 9 -7 25 -15 35 -8 11 -15
35 -15 53 0 21 -6 36 -15 39 -8 4 -15 17 -15 30 0 14 -7 27 -15 30 -8 4 -15
16 -15 28 0 12 -5 27 -11 33 -5 5 -12 25 -14 43 -3 18 -11 40 -20 50 -8 9 -15
26 -15 37 0 12 -7 23 -15 27 -9 3 -15 18 -15 40 0 21 -6 36 -15 40 -8 3 -15
16 -15 29 0 14 -7 30 -15 37 -8 7 -15 22 -15 34 0 11 -7 30 -15 40 -8 11 -15
32 -15 47 0 18 -6 28 -20 32 -14 4 -18 10 -14 22 4 9 1 20 -5 24 -7 5 -14 25
-16 45 -2 20 -9 44 -17 53 -7 9 -12 24 -10 35 2 10 -3 18 -11 18 -18 0 -27 21
-27 60 0 15 -7 33 -15 40 -8 7 -15 20 -15 30 0 9 -8 24 -18 33 -17 15 -71 17
-575 17 -306 0 -558 -3 -561 -8z"/>
<path d="M11381 4098 c-17 -33 -31 -70 -31 -80 0 -10 -7 -21 -15 -24 -9 -4
-15 -19 -15 -39 0 -19 -6 -40 -12 -47 -20 -21 -48 -78 -48 -95 0 -15 -21 -67
-46 -115 -8 -14 -14 -33 -14 -42 0 -9 -7 -16 -15 -16 -10 0 -15 -10 -15 -30 0
-16 -20 -69 -45 -117 -25 -48 -45 -97 -45 -109 0 -12 -7 -27 -15 -34 -8 -7
-15 -20 -15 -29 0 -9 -12 -38 -26 -66 -14 -27 -35 -79 -46 -115 -12 -36 -26
-70 -32 -75 -19 -18 -46 -75 -46 -98 -1 -12 -12 -40 -25 -62 -33 -53 -45 -82
-45 -106 0 -11 -7 -19 -16 -19 -11 0 -13 -6 -9 -19 4 -12 -5 -41 -23 -74 -16
-30 -32 -68 -36 -83 -8 -35 -38 -98 -48 -102 -5 -2 -8 -8 -8 -14 0 -5 -6 -24
-14 -41 -8 -18 -16 -41 -19 -52 -10 -38 -33 -93 -43 -106 -6 -8 -14 -26 -18
-41 -3 -16 -11 -28 -16 -28 -6 0 -10 -10 -10 -22 0 -13 -7 -36 -15 -52 -8 -15
-15 -37 -15 -47 0 -11 -7 -22 -15 -25 -8 -4 -15 -15 -15 -25 0 -11 -7 -22 -15
-25 -9 -4 -15 -19 -15 -38 0 -18 -7 -41 -15 -52 -8 -10 -15 -26 -15 -35 0 -9
-7 -22 -15 -29 -8 -7 -15 -20 -15 -30 0 -10 -7 -23 -15 -30 -8 -7 -15 -23 -15
-36 0 -21 -15 -55 -76 -177 -8 -16 -14 -35 -14 -44 0 -13 -15 -48 -41 -93 -5
-8 -12 -22 -15 -30 -3 -8 -11 -28 -19 -45 -7 -16 -17 -41 -21 -55 -4 -14 -18
-42 -30 -62 -13 -21 -24 -44 -24 -52 0 -7 -6 -19 -14 -25 -7 -6 -16 -32 -19
-58 -3 -26 -10 -49 -16 -51 -6 -2 -11 -12 -11 -22 0 -9 -7 -23 -15 -30 -8 -7
-15 -20 -15 -30 0 -10 -7 -23 -15 -30 -8 -7 -15 -27 -15 -46 0 -18 -6 -39 -12
-46 -19 -21 -48 -78 -48 -94 0 -8 -7 -17 -15 -20 -8 -4 -15 -17 -15 -31 0 -14
-6 -37 -13 -51 -24 -47 -45 -96 -52 -119 -3 -13 -11 -23 -16 -23 -5 0 -9 -9
-9 -21 0 -22 -18 -67 -52 -133 -24 -45 -13 -60 36 -51 16 3 244 5 507 5 400 0
479 2 479 14 0 7 6 19 14 25 8 6 16 24 19 39 7 37 37 116 46 122 12 8 41 71
41 89 0 9 7 29 15 45 8 15 15 34 15 41 0 7 6 15 14 18 8 3 17 24 21 46 4 26
12 41 22 41 10 0 12 6 8 19 -4 12 6 41 25 77 16 31 30 62 30 69 0 7 7 18 15
25 8 7 15 22 15 34 0 11 7 34 15 50 8 15 15 34 15 42 0 7 6 17 13 21 15 10 47
77 47 99 0 9 6 28 13 42 8 15 21 42 30 60 9 19 17 39 17 47 0 7 7 18 15 25 8
7 15 25 15 41 0 15 7 34 15 43 8 8 15 19 15 25 0 6 14 37 30 68 17 31 30 63
30 72 0 9 20 56 45 106 25 49 45 96 45 104 0 19 71 165 82 169 4 2 8 16 8 31
0 15 7 36 15 47 8 10 15 29 15 41 0 12 6 28 13 35 17 18 57 102 57 120 0 18
28 75 40 83 4 3 11 23 15 45 4 26 12 40 22 40 9 0 12 6 9 18 -3 9 8 44 24 77
16 33 30 65 30 71 0 6 7 17 15 24 8 7 15 25 15 41 0 15 7 34 15 43 8 8 15 24
15 36 0 11 7 23 15 26 8 4 15 14 15 23 0 9 7 25 15 35 8 11 15 32 15 47 0 14
7 32 15 39 8 7 15 19 15 26 0 8 14 40 30 71 17 31 30 63 30 72 0 10 7 26 15
37 8 10 15 29 15 42 0 12 7 25 15 28 8 4 15 14 15 23 0 10 7 26 15 37 8 10 15
28 15 40 0 11 7 29 15 40 8 10 15 29 15 42 0 12 7 25 15 28 8 4 15 17 15 29 0
13 7 30 15 39 8 8 15 20 15 26 0 13 21 66 46 113 8 16 14 35 14 43 0 8 7 17
15 20 8 4 15 17 15 31 0 14 6 37 13 51 8 15 30 59 50 99 21 40 37 80 37 91 0
19 28 83 40 92 4 3 10 17 14 33 l6 27 -519 0 -519 0 -31 -62z"/>
<path d="M12570 4149 c0 -6 9 -22 20 -36 11 -14 20 -31 20 -38 0 -7 7 -18 15
-25 8 -7 15 -24 15 -38 0 -27 35 -108 51 -118 5 -3 9 -16 9 -30 0 -13 4 -24 9
-24 5 0 12 -20 15 -44 4 -24 13 -47 21 -50 8 -3 15 -16 15 -30 0 -13 7 -26 15
-30 8 -3 15 -15 15 -26 0 -12 7 -28 15 -36 8 -9 15 -29 15 -45 0 -17 7 -37 15
-45 8 -9 15 -24 15 -35 0 -10 7 -19 15 -19 10 0 15 -10 15 -30 0 -16 4 -30 9
-30 6 0 13 -20 16 -44 4 -25 13 -47 21 -50 8 -3 14 -17 14 -31 0 -14 5 -25 10
-25 6 0 10 -11 10 -23 0 -13 9 -32 20 -42 11 -10 20 -30 20 -44 0 -14 11 -44
24 -67 13 -22 26 -54 30 -70 9 -39 38 -97 54 -107 6 -4 12 -19 12 -32 0 -13 4
-26 9 -29 5 -3 12 -26 15 -50 4 -24 13 -47 21 -50 8 -3 15 -14 15 -24 0 -11 7
-25 15 -32 8 -7 15 -23 15 -36 0 -13 4 -24 10 -24 5 0 13 -18 16 -40 4 -22 13
-45 20 -51 8 -6 14 -17 14 -24 0 -6 11 -33 25 -59 14 -26 25 -55 25 -64 0 -10
9 -34 20 -55 11 -20 20 -43 20 -51 0 -8 7 -16 15 -20 8 -3 15 -15 15 -26 0
-11 6 -23 13 -25 6 -3 12 -21 13 -40 0 -19 8 -43 17 -53 9 -10 17 -26 17 -34
0 -9 7 -21 15 -28 9 -7 13 -20 10 -30 -3 -9 4 -27 15 -40 11 -13 20 -31 20
-41 0 -10 11 -39 25 -65 14 -26 25 -54 25 -62 0 -16 40 -104 52 -112 3 -3 10
-18 13 -33 5 -19 12 -26 22 -23 8 3 17 6 19 6 2 0 4 11 4 24 0 13 7 29 15 36
8 7 15 20 15 30 0 10 7 23 15 30 8 7 15 23 15 35 0 12 7 28 15 35 8 7 15 21
15 31 0 11 14 45 30 76 17 31 30 62 30 70 0 7 7 16 15 19 9 4 15 19 15 38 0
18 7 41 15 52 8 10 15 26 15 35 0 9 7 22 15 29 8 7 15 23 15 37 0 13 7 26 15
29 9 4 15 19 15 35 0 17 6 32 15 35 8 4 15 15 15 25 0 20 37 96 51 105 5 3 9
13 9 23 0 10 7 24 15 31 8 7 15 29 15 50 0 21 7 43 15 50 8 7 15 21 15 32 0
10 6 21 14 24 8 3 17 21 20 40 4 19 11 34 16 34 6 0 10 10 10 23 0 12 14 49
30 80 33 63 39 117 15 137 -8 7 -15 18 -15 25 0 7 -7 26 -15 41 -8 16 -15 39
-15 50 0 12 -7 27 -15 34 -8 7 -15 21 -15 32 0 10 -7 21 -15 24 -10 4 -15 20
-15 44 0 24 -5 40 -15 44 -8 3 -15 16 -15 29 0 14 -7 30 -15 37 -8 7 -15 22
-15 34 0 11 -7 30 -15 40 -8 11 -15 30 -15 42 0 12 -7 27 -15 34 -8 7 -15 21
-15 32 0 10 -6 21 -14 24 -10 4 -14 19 -13 43 1 24 -5 45 -16 55 -9 10 -17 23
-17 31 0 7 -7 15 -15 19 -10 4 -15 20 -15 51 0 33 -4 45 -15 45 -9 0 -15 9
-15 24 0 13 -7 29 -15 36 -8 7 -15 23 -15 37 0 13 -7 31 -15 39 -8 9 -15 26
-15 39 0 12 -7 25 -15 29 -8 3 -15 16 -15 29 0 14 -7 31 -16 38 -11 9 -14 23
-11 46 l6 33 -585 0 c-415 0 -584 -3 -584 -11z"/>
<path d="M15836 4128 c-9 -17 -16 -46 -16 -63 0 -20 -6 -35 -15 -39 -8 -3 -15
-16 -15 -30 0 -13 -7 -26 -15 -30 -8 -3 -15 -16 -15 -29 0 -14 -7 -30 -15 -37
-8 -7 -15 -19 -15 -27 0 -7 -13 -42 -29 -76 -16 -34 -32 -73 -35 -87 -7 -24
-56 -134 -77 -172 -5 -10 -9 -23 -9 -30 0 -7 -14 -40 -30 -73 -16 -33 -30 -65
-30 -71 0 -6 -7 -17 -15 -24 -8 -7 -15 -22 -15 -35 0 -12 -13 -48 -29 -81 -16
-32 -32 -69 -36 -81 -3 -13 -11 -23 -16 -23 -5 0 -9 -15 -9 -34 0 -19 -4 -37
-9 -41 -15 -9 -81 -154 -81 -177 0 -11 -13 -43 -30 -70 -16 -26 -30 -57 -30
-68 0 -12 -7 -23 -15 -26 -8 -4 -15 -18 -15 -33 0 -15 -7 -36 -15 -47 -8 -10
-15 -27 -15 -37 0 -10 -7 -20 -15 -23 -10 -4 -15 -20 -15 -50 0 -23 -6 -47
-12 -51 -17 -10 -75 -129 -83 -168 -9 -42 -34 -95 -45 -95 -4 0 -11 -13 -15
-30 -4 -16 -11 -32 -16 -35 -5 -4 -9 -19 -9 -34 0 -16 -7 -34 -15 -41 -8 -7
-15 -20 -15 -29 0 -9 -14 -40 -30 -70 -17 -30 -30 -63 -30 -73 0 -20 -23 -71
-65 -147 -14 -24 -25 -57 -25 -72 0 -15 -6 -34 -12 -41 -18 -20 -48 -77 -48
-93 0 -7 -7 -18 -15 -25 -8 -7 -15 -29 -15 -50 0 -21 -7 -43 -15 -50 -8 -7
-15 -19 -15 -26 0 -8 -3 -14 -8 -14 -11 0 -52 -95 -52 -123 0 -13 -7 -30 -15
-37 -8 -7 -15 -23 -15 -35 0 -12 -7 -28 -15 -35 -8 -7 -15 -18 -15 -25 0 -7
-6 -18 -14 -24 -7 -6 -16 -29 -20 -51 -3 -22 -11 -40 -16 -40 -6 0 -10 -8 -10
-19 0 -10 -9 -30 -20 -44 -11 -14 -20 -32 -20 -40 0 -9 -4 -19 -10 -22 -5 -3
-10 -24 -10 -45 0 -21 -6 -43 -12 -47 -16 -10 -48 -69 -48 -88 0 -7 -7 -18
-15 -25 -8 -7 -15 -27 -15 -46 0 -18 -4 -35 -9 -38 -14 -9 -81 -151 -81 -172
0 -11 -7 -30 -16 -42 -9 -13 -13 -26 -9 -30 3 -4 233 -8 510 -10 l503 -4 18
28 c10 15 20 36 21 47 2 12 9 28 16 36 22 27 57 107 57 130 0 12 11 39 25 61
14 22 25 47 25 55 0 9 7 18 15 21 8 4 15 18 15 33 0 29 33 106 56 129 8 7 14
22 14 33 0 10 5 19 10 19 6 0 10 18 10 39 0 25 5 41 15 45 9 3 15 18 15 35 0
16 6 31 15 35 8 3 15 14 15 24 0 11 7 25 15 32 8 7 15 27 15 46 0 18 4 35 9
38 12 8 51 88 51 104 0 7 6 15 14 18 8 3 18 24 21 47 4 23 10 44 14 47 10 8
41 80 41 96 0 8 7 17 15 20 8 4 15 19 15 34 0 16 16 59 35 97 19 37 35 74 35
81 0 6 5 12 10 12 6 0 10 15 10 34 0 18 7 39 15 46 8 7 15 18 15 25 0 7 7 18
15 25 8 7 15 23 15 37 0 13 7 26 15 29 8 4 15 15 15 26 0 20 17 66 46 121 8
16 14 35 14 42 0 8 6 18 14 22 7 4 15 26 18 49 3 22 17 59 32 82 14 23 26 49
26 57 0 9 7 18 15 21 8 4 15 17 15 31 0 28 41 123 52 123 5 0 8 11 8 25 0 14
7 28 15 31 9 4 15 19 15 39 0 18 7 38 15 45 8 7 15 20 15 29 0 10 7 26 15 37
8 10 15 26 15 35 0 9 7 22 15 29 8 7 15 25 15 39 0 15 7 36 15 47 8 10 15 26
15 35 0 9 7 22 15 29 8 7 15 21 15 32 0 10 7 21 15 24 10 4 15 20 15 45 0 21
6 42 13 46 14 10 47 77 47 99 0 8 7 17 15 20 9 4 15 19 15 35 0 29 72 183 91
195 5 3 7 15 4 25 -4 11 0 31 9 44 9 13 16 31 16 40 0 9 7 18 15 21 8 4 15 14
15 23 0 10 7 26 15 37 8 10 15 33 15 50 0 19 6 34 15 38 8 3 15 16 15 29 0 14
6 30 14 36 8 7 17 23 20 36 4 14 11 25 16 25 6 0 10 13 10 29 0 26 54 147 78
176 5 6 11 30 14 53 l6 42 -518 0 -519 0 -15 -32z"/>
<path d="M20411 4098 c-16 -35 -32 -73 -36 -85 -3 -13 -11 -23 -16 -23 -5 0
-9 -11 -9 -24 0 -13 -7 -29 -15 -36 -8 -7 -15 -20 -15 -29 0 -9 -7 -29 -15
-45 -8 -15 -15 -34 -15 -41 0 -7 -7 -18 -15 -25 -8 -7 -15 -23 -15 -36 0 -13
-4 -24 -10 -24 -5 0 -15 -18 -21 -40 -7 -22 -16 -40 -21 -40 -4 0 -8 -10 -8
-23 0 -13 -7 -32 -15 -43 -8 -10 -15 -27 -15 -36 0 -9 -7 -23 -15 -31 -7 -8
-17 -26 -21 -41 -3 -14 -10 -26 -15 -26 -5 0 -9 -8 -9 -18 0 -26 -33 -112 -58
-152 -12 -19 -27 -50 -33 -67 -6 -18 -15 -33 -20 -33 -5 0 -9 -17 -9 -38 0
-21 -5 -43 -11 -49 -13 -13 -29 -41 -59 -103 -11 -25 -28 -58 -35 -73 -8 -16
-15 -41 -15 -56 0 -15 -5 -32 -11 -38 -14 -14 -29 -42 -64 -113 -14 -30 -30
-63 -35 -72 -6 -10 -10 -29 -10 -43 0 -14 -7 -28 -15 -31 -8 -4 -15 -17 -15
-29 0 -13 -6 -30 -12 -37 -20 -21 -47 -80 -54 -116 -4 -18 -11 -35 -15 -38 -5
-3 -9 -16 -9 -28 0 -13 -7 -29 -15 -36 -8 -7 -15 -23 -15 -36 0 -13 -6 -24
-12 -24 -14 -1 -48 -66 -48 -91 0 -9 -7 -24 -15 -35 -8 -10 -15 -32 -15 -47 0
-15 -7 -30 -15 -33 -8 -4 -15 -14 -15 -24 0 -10 -7 -23 -15 -30 -8 -7 -15 -20
-15 -29 0 -10 -7 -26 -15 -37 -8 -10 -15 -27 -15 -37 0 -10 -10 -37 -22 -60
-29 -57 -50 -99 -58 -117 -4 -8 -14 -30 -23 -48 -9 -19 -17 -41 -17 -51 0 -9
-7 -26 -15 -37 -8 -10 -15 -31 -15 -46 0 -18 -5 -28 -15 -28 -8 0 -15 -9 -15
-20 0 -11 -6 -23 -14 -26 -8 -3 -16 -27 -20 -55 -4 -27 -10 -49 -14 -49 -10 0
-42 -71 -42 -92 0 -9 -7 -18 -15 -22 -8 -3 -15 -17 -15 -31 0 -14 -7 -28 -15
-31 -8 -4 -15 -17 -15 -30 0 -13 -13 -48 -30 -77 -16 -30 -30 -61 -30 -70 0
-9 -7 -20 -16 -25 -8 -5 -18 -27 -21 -50 -4 -30 -9 -39 -20 -35 -12 5 -14 1
-8 -16 4 -14 1 -31 -9 -46 -9 -13 -16 -34 -16 -45 0 -11 -7 -23 -15 -26 -8 -4
-15 -14 -15 -24 0 -10 -7 -23 -15 -30 -8 -7 -15 -23 -15 -36 0 -12 -7 -29 -15
-38 -8 -8 -15 -22 -15 -30 0 -9 -13 -42 -30 -73 -16 -31 -30 -62 -30 -70 0 -7
-7 -16 -15 -19 -9 -4 -15 -19 -15 -39 l0 -33 528 1 c580 2 562 0 562 62 0 18
7 38 15 45 8 7 15 20 15 29 0 9 7 25 15 35 8 11 15 28 15 38 0 20 40 101 52
106 4 2 8 21 8 42 0 21 4 41 9 44 16 10 51 86 51 111 0 13 7 30 15 39 8 8 15
21 15 28 0 8 7 23 15 34 8 10 15 27 15 36 0 9 8 31 17 50 9 18 22 44 29 58 7
14 15 42 19 63 4 20 11 37 16 37 5 0 9 8 9 18 0 10 7 27 15 38 8 10 15 29 15
42 0 12 14 48 30 79 17 31 30 63 30 72 0 10 7 26 15 37 8 10 15 29 15 42 0 12
7 25 15 28 10 4 15 20 15 50 0 30 5 46 15 50 8 4 15 14 15 23 0 9 7 25 15 35
8 11 15 32 15 47 0 15 6 34 13 41 23 22 47 80 47 110 0 16 6 31 15 34 8 4 15
14 15 23 0 10 7 26 15 37 8 10 15 31 15 46 0 15 6 33 13 40 25 28 47 81 47
113 0 20 6 35 15 39 8 3 15 16 15 29 0 14 7 30 15 37 8 7 15 21 15 31 0 24 41
119 52 119 4 0 8 18 8 40 0 27 5 43 15 46 8 4 15 14 15 24 0 10 7 23 15 30 8
7 15 27 15 45 0 18 7 38 15 45 8 7 15 21 15 31 0 9 7 24 15 33 8 8 15 31 15
51 0 22 6 38 15 41 8 4 15 14 15 23 0 10 7 26 15 37 8 10 15 28 15 38 0 22 66
162 80 171 13 8 46 -46 53 -88 3 -20 13 -44 21 -53 9 -8 16 -24 16 -35 0 -10
5 -19 10 -19 6 0 10 -11 10 -24 0 -28 47 -126 60 -126 5 0 9 -16 8 -35 -1 -20
6 -43 15 -53 10 -10 17 -24 17 -30 0 -7 4 -20 9 -30 6 -9 13 -34 16 -54 3 -21
9 -38 14 -38 9 0 37 -65 46 -107 3 -17 13 -37 21 -44 8 -6 14 -22 14 -34 0
-13 7 -26 16 -29 11 -4 14 -13 11 -27 -3 -13 6 -42 22 -73 16 -29 32 -70 36
-93 3 -23 13 -44 21 -47 8 -3 14 -17 14 -31 0 -14 4 -25 9 -25 5 0 11 -17 15
-39 3 -21 13 -44 21 -51 8 -7 15 -21 15 -31 0 -10 4 -20 9 -23 4 -3 11 -23 15
-44 3 -22 13 -45 21 -52 8 -7 15 -20 15 -30 0 -10 7 -23 15 -30 9 -7 13 -21 9
-35 -3 -13 1 -28 10 -37 8 -9 18 -28 22 -43 4 -14 13 -29 20 -32 9 -3 14 -20
14 -43 0 -21 7 -43 15 -50 8 -7 15 -20 15 -30 0 -10 6 -22 13 -28 7 -6 14 -28
15 -49 2 -20 7 -40 11 -43 12 -7 38 -70 46 -107 4 -18 11 -33 16 -33 5 0 9 -8
9 -18 0 -10 7 -28 17 -41 9 -13 17 -38 19 -55 1 -17 7 -32 13 -34 6 -2 11 -11
11 -21 0 -9 6 -25 14 -36 7 -11 17 -39 20 -62 4 -23 14 -44 22 -47 8 -3 14
-17 14 -31 0 -14 4 -25 10 -25 5 0 13 -18 16 -40 4 -22 13 -45 20 -51 8 -6 14
-22 14 -34 0 -13 4 -25 9 -27 6 -1 12 -17 15 -34 3 -17 13 -44 21 -60 8 -16
15 -34 15 -40 0 -7 7 -15 16 -18 9 -4 13 -13 10 -24 -5 -14 43 -133 57 -143 1
-1 246 -3 544 -5 533 -3 589 0 539 28 -9 5 -16 19 -16 32 0 13 -7 29 -15 36
-8 7 -15 25 -15 40 0 15 -7 33 -15 40 -8 7 -15 23 -15 36 0 13 -5 23 -12 21
-6 -1 -14 7 -16 18 -2 11 -10 34 -18 52 -8 17 -14 40 -14 51 0 11 -7 22 -15
26 -9 3 -15 18 -15 35 0 20 -6 30 -19 34 -14 3 -18 11 -15 25 4 12 0 22 -10
25 -9 4 -16 18 -16 32 0 15 -7 33 -15 41 -8 9 -15 28 -15 43 0 16 -7 34 -15
41 -8 7 -15 20 -15 30 0 10 -7 23 -15 30 -8 7 -15 20 -15 30 0 10 -7 23 -15
30 -8 7 -15 18 -15 25 0 7 -7 26 -15 41 -8 16 -15 41 -15 55 0 15 -7 29 -15
33 -8 3 -15 16 -15 30 0 13 -7 26 -15 30 -8 3 -15 14 -15 24 0 11 -7 25 -15
32 -8 7 -15 23 -15 35 0 13 -7 25 -15 29 -9 3 -15 18 -15 40 0 21 -6 36 -15
40 -8 3 -15 16 -15 29 0 14 -7 30 -15 37 -8 7 -15 21 -15 32 0 10 -7 21 -15
24 -8 4 -15 14 -15 24 0 10 -7 31 -15 46 -8 16 -15 39 -15 50 0 12 -7 24 -15
28 -9 3 -15 18 -15 36 0 20 -5 30 -15 30 -8 0 -15 9 -15 20 0 11 -4 28 -9 38
-28 56 -51 111 -51 125 0 8 -7 17 -15 21 -9 3 -15 18 -15 36 0 20 -5 30 -15
30 -9 0 -15 9 -15 21 0 11 -7 27 -15 35 -8 9 -15 30 -15 48 0 19 -7 39 -15 46
-8 7 -15 23 -15 35 0 13 -7 25 -15 29 -8 3 -15 16 -15 30 0 13 -7 26 -15 30
-8 3 -15 16 -15 30 0 13 -7 26 -15 30 -10 3 -15 19 -15 46 0 22 -4 40 -9 40
-12 0 -51 76 -51 99 0 10 -7 21 -15 25 -8 3 -15 16 -15 30 0 13 -7 26 -15 30
-9 3 -15 18 -15 39 0 19 -7 40 -15 47 -8 7 -15 20 -15 30 0 10 -7 20 -15 24
-8 3 -15 16 -15 29 0 14 -7 30 -15 37 -8 7 -15 23 -15 35 0 13 -6 25 -14 28
-9 4 -14 20 -14 43 0 24 -6 40 -16 46 -9 5 -16 17 -16 27 0 11 -7 21 -15 25
-8 3 -15 17 -15 31 0 14 -7 28 -15 31 -9 4 -15 19 -15 35 0 19 -5 29 -15 29
-11 0 -15 11 -15 39 0 22 -6 44 -15 51 -8 7 -15 20 -15 30 0 10 -7 23 -15 30
-8 7 -15 23 -15 35 0 13 -7 25 -15 29 -8 3 -15 14 -15 24 0 11 -7 25 -15 32
-9 7 -15 29 -15 51 0 28 -4 39 -15 39 -9 0 -15 9 -15 25 0 14 -7 28 -15 31 -8
4 -15 18 -15 34 0 16 -7 30 -15 34 -8 3 -15 16 -15 29 0 13 -7 32 -15 43 -8
10 -15 29 -15 40 0 12 -7 27 -15 34 -8 7 -15 20 -15 30 0 10 -7 20 -15 24 -8
3 -15 16 -15 29 0 14 -7 30 -15 37 -8 7 -15 27 -15 45 0 20 -6 35 -15 39 -8 3
-15 17 -15 31 l0 25 -529 0 -530 0 -30 -62z"/>
<path d="M23764 4138 c3 -13 6 -874 6 -1915 l0 -1892 398 -1 c218 0 457 2 530
6 l132 7 0 1908 0 1909 -536 0 -536 0 6 -22z"/>
<path d="M4690 2273 l0 -388 1502 3 c826 1 1505 6 1508 10 3 4 4 177 2 385
l-2 377 -1505 0 -1505 0 0 -387z"/>
<path d="M4690 737 l0 -404 1463 2 c804 1 1481 2 1505 3 l42 2 0 400 0 400
-1505 0 -1505 0 0 -403z"/>
</g>
</svg>
