<svg width="559" height="476" viewBox="0 0 559 476" fill="none" xmlns="http://www.w3.org/2000/svg">
<g clip-path="url(#clip0_15_251)">
<path opacity="0.1" d="M555.536 328.049C540.293 251.183 450.989 189.749 433.571 109.649C401.914 7.74001 297.57 -8.37199 229.765 35.887C122.328 106.016 236.941 123.419 26.2919 289.34C-25.7221 330.309 -9.14807 511.157 154.485 469.653C242.545 447.317 269.315 444.183 308.925 440.505C408.763 431.236 581.123 457.079 555.536 328.049Z" fill="#367CFF"/>
<path d="M436.267 347.314L281.957 428.813L127.88 347.314V224.244H436.267V347.314Z" fill="white"/>
<path d="M281.957 430.063C281.753 430.063 281.552 430.013 281.372 429.917L127.3 348.418C127.099 348.312 126.932 348.154 126.814 347.96C126.697 347.767 126.635 347.545 126.634 347.318V224.244C126.634 223.912 126.765 223.595 127 223.36C127.234 223.126 127.552 222.994 127.884 222.994H436.267C436.598 222.994 436.916 223.126 437.151 223.36C437.385 223.595 437.517 223.912 437.517 224.244V347.314C437.516 347.541 437.454 347.763 437.336 347.956C437.219 348.15 437.051 348.308 436.851 348.414L282.541 429.914C282.361 430.011 282.161 430.062 281.957 430.063ZM129.13 346.563L281.957 427.4L435.017 346.561V225.494H129.13V346.563Z" fill="#262626"/>
<path d="M436.267 197.835L281.957 116.336L351.298 82.913L505.608 164.413L436.267 197.835Z" fill="white"/>
<path d="M436.267 199.085C436.064 199.085 435.863 199.036 435.683 198.941L281.373 117.441C281.169 117.333 280.998 117.17 280.881 116.971C280.763 116.772 280.703 116.544 280.707 116.312C280.712 116.081 280.78 115.856 280.905 115.661C281.029 115.466 281.206 115.31 281.414 115.209L350.755 81.786C350.931 81.7005 351.125 81.6579 351.321 81.6615C351.517 81.6652 351.709 81.715 351.882 81.807L506.192 163.307C506.396 163.415 506.567 163.578 506.684 163.777C506.802 163.976 506.862 164.204 506.858 164.435C506.853 164.666 506.785 164.892 506.66 165.087C506.536 165.281 506.359 165.438 506.151 165.538L436.81 198.961C436.641 199.043 436.455 199.085 436.267 199.085ZM284.73 116.385L436.293 196.433L502.835 164.36L351.272 84.314L284.73 116.385Z" fill="#262626"/>
<path d="M127.88 197.835L282.19 116.336L212.849 82.913L58.5388 164.413L127.88 197.835Z" fill="white"/>
<path d="M127.88 199.085C127.692 199.085 127.506 199.043 127.337 198.961L57.9999 165.538C57.7916 165.438 57.6153 165.281 57.4905 165.087C57.3657 164.892 57.2974 164.666 57.2932 164.435C57.2889 164.204 57.3489 163.976 57.4664 163.777C57.584 163.578 57.7544 163.415 57.9589 163.307L212.269 81.807C212.442 81.715 212.634 81.6652 212.83 81.6615C213.026 81.6579 213.22 81.7005 213.396 81.786L282.737 115.209C282.945 115.31 283.121 115.466 283.246 115.661C283.371 115.856 283.439 116.081 283.443 116.312C283.448 116.544 283.388 116.772 283.27 116.971C283.153 117.17 282.982 117.333 282.778 117.441L128.468 198.941C128.287 199.036 128.085 199.086 127.88 199.085ZM61.3119 164.362L127.854 196.435L279.417 116.387L212.875 84.314L61.3119 164.362Z" fill="#262626"/>
<path d="M127.88 197.835L282.19 279.335L202.849 322.757L48.5388 241.258L127.88 197.835Z" fill="white"/>
<path d="M202.849 324.007C202.645 324.007 202.445 323.957 202.265 323.862L47.9549 242.362C47.7557 242.256 47.5887 242.099 47.4718 241.906C47.3548 241.713 47.2922 241.492 47.2906 241.267C47.2889 241.041 47.3483 240.82 47.4625 240.625C47.5766 240.431 47.7412 240.271 47.9389 240.162L127.28 196.739C127.461 196.64 127.664 196.587 127.871 196.585C128.078 196.584 128.281 196.634 128.464 196.731L282.774 278.231C282.973 278.337 283.14 278.494 283.257 278.687C283.374 278.88 283.437 279.101 283.438 279.326C283.44 279.552 283.38 279.773 283.266 279.968C283.152 280.162 282.988 280.322 282.79 280.431L203.449 323.854C203.265 323.954 203.059 324.007 202.849 324.007ZM51.1789 241.238L202.838 321.338L279.551 279.354L127.891 199.254L51.1789 241.238Z" fill="#262626"/>
<path d="M436.267 197.835L281.957 279.335L361.298 322.757L515.608 241.258L436.267 197.835Z" fill="white"/>
<path d="M361.3 324.007C361.09 324.007 360.884 323.954 360.7 323.854L281.359 280.431C281.161 280.322 280.996 280.162 280.882 279.968C280.768 279.773 280.709 279.552 280.71 279.326C280.712 279.101 280.775 278.88 280.892 278.687C281.009 278.494 281.176 278.337 281.375 278.231L435.685 196.731C435.867 196.634 436.071 196.584 436.278 196.585C436.484 196.587 436.688 196.64 436.869 196.739L516.21 240.162C516.407 240.271 516.572 240.431 516.686 240.625C516.8 240.82 516.86 241.041 516.858 241.267C516.856 241.492 516.794 241.713 516.677 241.906C516.56 242.099 516.393 242.256 516.194 242.362L361.884 323.862C361.704 323.957 361.503 324.007 361.3 324.007ZM284.6 279.354L361.312 321.338L512.972 241.238L436.259 199.254L284.6 279.354Z" fill="#262626"/>
<path d="M282.19 116.336L127.88 197.835L281.957 279.335L436.267 197.835L282.19 116.336Z" fill="#262626"/>
<path d="M283.207 279.334H280.707V428.813H283.207V279.334Z" fill="#262626"/>
<path d="M195.5 190.436C195.293 190.436 195.091 190.371 194.923 190.251C194.706 190.098 194.56 189.865 194.515 189.603C194.471 189.342 194.532 189.073 194.685 188.857C194.87 188.596 212.943 162.468 192.767 138.648C189.196 134.41 184.741 131.004 179.715 128.67C174.689 126.335 169.214 125.127 163.672 125.132H163.4C165.316 131.788 164.974 137.706 162.261 142.246C161.105 144.298 159.399 145.986 157.335 147.12C155.272 148.254 152.932 148.79 150.581 148.666C148.634 148.507 146.776 147.783 145.235 146.584C143.693 145.384 142.535 143.762 141.902 141.914C139.683 136.126 142.002 130.514 148.114 126.897C151.986 124.762 156.288 123.524 160.703 123.276C159.267 119.468 157.399 115.838 155.137 112.455C147.852 101.329 134.575 93.627 118.709 91.324C105.263 89.373 92.3769 91.671 85.8759 97.177C85.6734 97.3483 85.4111 97.4322 85.1468 97.4102C84.8824 97.3881 84.6377 97.262 84.4664 97.0595C84.295 96.857 84.2112 96.5948 84.2332 96.3304C84.2552 96.0661 84.3814 95.8213 84.5839 95.65C91.5019 89.791 105.009 87.314 118.996 89.35C135.429 91.736 149.211 99.759 156.811 111.364C159.275 115.044 161.279 119.013 162.779 123.18C168.757 123.036 174.691 124.236 180.145 126.69C185.598 129.144 190.431 132.79 194.288 137.36C215.481 162.379 196.505 189.745 196.311 190.019C196.218 190.148 196.097 190.253 195.956 190.325C195.815 190.398 195.658 190.436 195.5 190.436ZM161.352 125.205C157.072 125.388 152.891 126.556 149.137 128.619C143.861 131.741 141.907 136.327 143.774 141.199C144.28 142.692 145.21 144.005 146.45 144.977C147.691 145.95 149.187 146.54 150.758 146.675C152.735 146.764 154.698 146.3 156.427 145.337C158.156 144.374 159.583 142.949 160.549 141.221C163.039 137.051 163.267 131.508 161.349 125.205H161.352Z" fill="#292A2E"/>
<path d="M68.6169 113.3C66.9176 113.811 65.0861 113.638 63.5124 112.818C61.9387 111.998 60.7471 110.596 60.1914 108.911C59.6357 107.226 59.7598 105.391 60.5372 103.796C61.3145 102.201 62.6839 100.972 64.3535 100.372C66.0232 99.7712 67.8613 99.8462 69.4765 100.581C71.0918 101.315 72.3564 102.651 73.0013 104.304C73.6462 105.957 73.6203 107.797 72.9291 109.431C72.238 111.065 70.9362 112.365 69.301 113.054C69.0776 113.148 68.8493 113.231 68.6169 113.3ZM65.2919 102.188C65.13 102.237 64.9707 102.294 64.8149 102.36C63.6644 102.845 62.7486 103.76 62.2628 104.911C61.777 106.061 61.7595 107.355 62.214 108.518C62.6685 109.682 63.5591 110.621 64.6961 111.137C65.8332 111.653 67.1268 111.705 68.3015 111.282C69.4761 110.858 70.439 109.993 70.985 108.87C71.531 107.747 71.617 106.455 71.2247 105.269C70.8324 104.084 69.9927 103.098 68.8846 102.523C67.7764 101.947 66.4874 101.827 65.2919 102.188Z" fill="#292A2E"/>
<path d="M68.605 97.63C66.9975 98.11 65.2693 97.9788 63.7526 97.2616C62.236 96.5445 61.038 95.292 60.389 93.745C59.8686 92.5048 59.7277 91.1381 59.9841 89.8178C60.2405 88.4974 60.8826 87.2828 61.8294 86.3275C62.7761 85.3722 63.9849 84.719 65.3028 84.4507C66.6207 84.1824 67.9886 84.3109 69.2335 84.8201C70.4784 85.3292 71.5444 86.1961 72.2965 87.3111C73.0487 88.426 73.4534 89.739 73.4593 91.084C73.4652 92.429 73.0722 93.7455 72.3299 94.8671C71.5876 95.9886 70.5293 96.8649 69.289 97.385C69.0654 97.4785 68.8371 97.5603 68.605 97.63ZM65.284 86.517C65.1201 86.5662 64.9588 86.6239 64.801 86.69C63.6278 87.1828 62.6984 88.1211 62.2168 89.2989C61.7353 90.4767 61.7411 91.7975 62.233 92.971C62.5917 93.8264 63.1906 94.5596 63.9573 95.0818C64.7239 95.604 65.6255 95.8929 66.5528 95.9135C67.4802 95.9341 68.3937 95.6856 69.1828 95.1979C69.9719 94.7103 70.6028 94.0045 70.9992 93.1659C71.3956 92.3272 71.5405 91.3917 71.4163 90.4724C71.2922 89.5532 70.9044 88.6895 70.2998 87.9861C69.6952 87.2826 68.8997 86.7693 68.0095 86.5084C67.1194 86.2475 66.1727 86.2512 65.284 86.517Z" fill="#292A2E"/>
<path d="M66.664 104.702C71.5749 104.702 75.556 102.043 75.556 98.763C75.556 95.483 71.5749 92.824 66.664 92.824C61.7531 92.824 57.772 95.483 57.772 98.763C57.772 102.043 61.7531 104.702 66.664 104.702Z" fill="white"/>
<path d="M70.5999 105.139C69.3251 105.516 68.0023 105.706 66.6729 105.703C61.1249 105.703 56.7729 102.663 56.7729 98.772C56.7729 94.881 61.1119 91.83 66.6579 91.824C69.0759 91.7776 71.4548 92.438 73.5029 93.724C74.4228 94.2032 75.1938 94.9253 75.7321 95.8119C76.2704 96.6984 76.5556 97.7156 76.5565 98.7528C76.5574 99.79 76.2741 100.808 75.7374 101.695C75.2006 102.583 74.431 103.306 73.512 103.787C72.6135 104.379 71.6322 104.835 70.5999 105.139ZM63.338 94.3C60.666 95.1 58.7719 96.827 58.7729 98.767C58.7729 101.444 62.3899 103.703 66.6729 103.699C68.6961 103.742 70.6879 103.194 72.4049 102.123C73.0489 101.826 73.5943 101.351 73.9764 100.754C74.3585 100.157 74.5612 99.4626 74.5606 98.7536C74.5599 98.0446 74.356 97.3507 73.9728 96.7541C73.5897 96.1576 73.0434 95.6835 72.399 95.388C70.6807 94.3193 68.6879 93.7751 66.665 93.822C65.5386 93.8191 64.4179 93.9801 63.338 94.3Z" fill="#292A2E"/>
<path d="M68.845 104.521L68.635 92.971L65.763 92.855L65.562 104.656L68.845 104.521Z" fill="#292A2E"/>
<path d="M54.867 101.276C55.374 101.276 55.785 100.865 55.785 100.358C55.785 99.851 55.374 99.44 54.867 99.44C54.36 99.44 53.949 99.851 53.949 100.358C53.949 100.865 54.36 101.276 54.867 101.276Z" fill="#292A2E"/>
<path d="M55.584 96.364C56.091 96.364 56.502 95.953 56.502 95.446C56.502 94.939 56.091 94.528 55.584 94.528C55.077 94.528 54.666 94.939 54.666 95.446C54.666 95.953 55.077 96.364 55.584 96.364Z" fill="#292A2E"/>
<path d="M352.625 132.766C352.411 132.766 352.202 132.697 352.03 132.57C351.858 132.443 351.732 132.264 351.669 132.059C348.352 119.673 347.467 106.761 349.063 94.038C351.648 75.438 361.906 51.027 396.093 40.338C400.903 38.7914 405.837 37.6603 410.841 36.957C412.452 26.896 418.58 15.982 432.285 8.452C464.847 -9.44 486.842 6.613 487.06 6.777C487.272 6.93613 487.412 7.17303 487.45 7.43558C487.487 7.69813 487.419 7.96483 487.26 8.177C487.101 8.38917 486.864 8.52944 486.601 8.56695C486.339 8.60446 486.072 8.53613 485.86 8.377C485.652 8.221 464.632 -7.04 433.249 10.206C420.443 17.243 414.581 27.343 412.914 36.719C427.993 35.234 435.214 40.264 438.455 44.063C440.46 46.3475 441.749 49.1716 442.16 52.1833C442.572 55.1951 442.088 58.2613 440.769 61C439.727 63.2136 438.037 65.059 435.924 66.2926C433.811 67.5261 431.374 68.0897 428.934 67.909C420.513 67.415 413.544 60.331 411.182 49.861C410.403 46.3168 410.195 42.6707 410.568 39.061C405.862 39.7371 401.22 40.8045 396.691 42.252C370.046 50.583 354.691 68.102 351.043 94.319C349.48 106.753 350.342 119.373 353.581 131.479C353.627 131.629 353.637 131.787 353.61 131.941C353.584 132.095 353.522 132.241 353.429 132.367C353.336 132.492 353.215 132.594 353.075 132.665C352.935 132.735 352.781 132.772 352.625 132.772V132.766ZM412.607 38.811C412.19 42.352 412.368 45.9376 413.133 49.42C415.294 58.998 421.542 65.471 429.051 65.912C431.097 66.0586 433.141 65.5833 434.912 64.5482C436.684 63.5132 438.102 61.9668 438.979 60.112C440.122 57.7238 440.538 55.052 440.173 52.4294C439.809 49.8069 438.682 47.3493 436.931 45.363C432.255 39.876 423.722 37.66 412.607 38.811Z" fill="#292A2E"/>
<path d="M510.354 16.884C509.007 16.8812 507.688 16.4976 506.55 15.7774C505.412 15.0573 504.501 14.0299 503.921 12.814C503.342 11.5981 503.118 10.2431 503.276 8.90551C503.434 7.56789 503.967 6.30215 504.813 5.25436C505.659 4.20658 506.784 3.41946 508.059 2.98386C509.333 2.54825 510.705 2.48192 512.016 2.79251C513.326 3.1031 514.522 3.77796 515.466 4.73919C516.409 5.70043 517.062 6.90886 517.348 8.22501C517.572 9.26833 517.56 10.3486 517.313 11.3866C517.065 12.4247 516.589 13.3943 515.918 14.2245C515.248 15.0546 514.4 15.7243 513.437 16.1845C512.475 16.6446 511.421 16.8837 510.354 16.884ZM510.369 4.60001C509.305 4.59998 508.268 4.92985 507.4 5.54415C506.531 6.15845 505.875 7.02694 505.521 8.02991C505.167 9.03289 505.133 10.121 505.423 11.1442C505.713 12.1674 506.314 13.0754 507.142 13.7431C507.97 14.4107 508.984 14.8051 510.046 14.8719C511.107 14.9386 512.164 14.6745 513.069 14.116C513.974 13.5574 514.683 12.7318 515.1 11.753C515.516 10.7742 515.618 9.69044 515.393 8.65101C515.149 7.50098 514.516 6.47015 513.601 5.73224C512.686 4.99433 511.544 4.59446 510.369 4.60001Z" fill="#292A2E"/>
<path d="M507.343 33.205C505.51 33.2049 503.747 32.5021 502.417 31.2413C501.086 29.9805 500.29 28.2577 500.192 26.4275C500.093 24.5973 500.7 22.7991 501.888 21.4029C503.075 20.0068 504.753 19.119 506.575 18.9223C508.397 18.7257 510.226 19.2352 511.683 20.3458C513.141 21.4565 514.118 23.0839 514.412 24.8929C514.707 26.7019 514.296 28.555 513.266 30.0705C512.235 31.5861 510.662 32.6489 508.872 33.04C508.37 33.1497 507.857 33.205 507.343 33.205ZM507.368 20.92C506.998 20.9202 506.629 20.9601 506.268 21.039C504.99 21.3195 503.869 22.079 503.135 23.1611C502.4 24.2432 502.108 25.5657 502.319 26.8564C502.53 28.1471 503.228 29.3079 504.269 30.0999C505.309 30.892 506.614 31.255 507.914 31.1143C509.215 30.9737 510.411 30.34 511.259 29.3437C512.106 28.3475 512.539 27.0644 512.469 25.7584C512.399 24.4524 511.831 23.223 510.882 22.323C509.933 21.423 508.676 20.9209 507.368 20.92Z" fill="#292A2E"/>
<path d="M518.082 19.8055C518.713 16.3898 515.078 12.8559 509.964 11.9122C504.85 10.9685 500.193 12.9725 499.563 16.3882C498.933 19.8038 502.568 23.3377 507.682 24.2814C512.796 25.2251 517.452 23.2211 518.082 19.8055Z" fill="white"/>
<path d="M510.2 25.516C509.294 25.5145 508.39 25.4309 507.5 25.266C504.985 24.8488 502.646 23.7068 500.771 21.98C499.95 21.2796 499.319 20.3836 498.936 19.3747C498.553 18.3658 498.43 17.2767 498.58 16.208C498.822 15.1564 499.325 14.1828 500.043 13.3771C500.761 12.5713 501.67 11.9595 502.687 11.598C505.066 10.6996 507.645 10.4686 510.145 10.93C512.646 11.3915 514.973 12.5278 516.874 14.216C517.695 14.9164 518.326 15.8124 518.709 16.8213C519.092 17.8302 519.214 18.9193 519.065 19.988C518.823 21.0396 518.32 22.0132 517.602 22.8189C516.884 23.6247 515.975 24.2365 514.958 24.598C513.45 25.222 511.832 25.5343 510.2 25.516ZM507.438 12.678C506.08 12.6607 504.733 12.9182 503.477 13.435C502.766 13.6729 502.126 14.0842 501.615 14.6318C501.103 15.1793 500.736 15.8459 500.547 16.571C500.465 17.3159 500.57 18.0694 500.852 18.7635C501.135 19.4576 501.586 20.0702 502.165 20.546C503.782 21.9578 505.75 22.9084 507.861 23.2981C509.973 23.6878 512.15 23.5023 514.165 22.761C514.876 22.5232 515.516 22.1118 516.027 21.5642C516.539 21.0167 516.906 20.3501 517.095 19.625C517.178 18.8801 517.073 18.1264 516.79 17.4322C516.508 16.738 516.056 16.1254 515.477 15.65C513.885 14.1978 511.904 13.2411 509.777 12.897C509.007 12.7536 508.225 12.6803 507.442 12.678H507.438Z" fill="#292A2E"/>
<path d="M507.668 11.682L505.657 23.748L508.624 24.424L511.112 12.175L507.668 11.682Z" fill="#292A2E"/>
<path d="M519.723 24.663C520.26 24.663 520.695 24.2278 520.695 23.691C520.695 23.1542 520.26 22.719 519.723 22.719C519.186 22.719 518.751 23.1542 518.751 23.691C518.751 24.2278 519.186 24.663 519.723 24.663Z" fill="#292A2E"/>
<path d="M521.417 19.687C521.954 19.687 522.389 19.2518 522.389 18.715C522.389 18.1782 521.954 17.743 521.417 17.743C520.88 17.743 520.445 18.1782 520.445 18.715C520.445 19.2518 520.88 19.687 521.417 19.687Z" fill="#292A2E"/>
</g>
<defs>
<clipPath id="clip0_15_251">
<rect width="558.095" height="475.798" fill="white"/>
</clipPath>
</defs>
</svg>
