<svg width="36" height="36" viewBox="0 0 36 36" fill="none" xmlns="http://www.w3.org/2000/svg">
<path d="M17.8204 21.7632H17.8991C19.5866 21.8082 20.9366 23.1807 20.9366 24.8682C20.9366 26.3082 19.9579 27.5119 18.6304 27.8719V29.1319C18.6304 29.5819 18.2704 29.9419 17.8204 29.9419C17.3704 29.9419 17.0104 29.5819 17.0104 29.1319V27.8719C16.3494 27.694 15.7654 27.3035 15.3486 26.7606C14.9318 26.2177 14.7053 25.5526 14.7041 24.8682C14.7041 24.4182 15.0641 24.0582 15.5141 24.0582C15.9641 24.0582 16.3241 24.4182 16.3241 24.8682C16.3241 25.7007 16.9879 26.3644 17.8091 26.3644C18.6304 26.3644 19.3054 25.6894 19.3054 24.8682C19.3054 24.0469 18.6304 23.3719 17.8091 23.3719H17.7304C16.921 23.35 16.1522 23.0133 15.5871 22.4336C15.022 21.8538 14.7053 21.0765 14.7041 20.2669C14.7041 18.8269 15.6829 17.6232 17.0104 17.2632V16.0032C17.0104 15.5532 17.3704 15.1932 17.8204 15.1932C18.2704 15.1932 18.6304 15.5532 18.6304 16.0032V17.2632C19.9579 17.6232 20.9366 18.8269 20.9366 20.2669C20.9366 20.7169 20.5766 21.0769 20.1266 21.0769C19.6766 21.0769 19.3166 20.7169 19.3166 20.2669C19.3166 19.4457 18.6416 18.7707 17.8204 18.7707C16.9991 18.7707 16.3241 19.4457 16.3241 20.2669C16.3241 21.0882 16.9991 21.7632 17.8204 21.7632Z" fill="#B2B80C"/>
<path d="M11.8485 5.73753L14.9827 9.40503L14.6441 9.78303C8.19338 11.2298 3.375 16.9909 3.375 23.8782C3.375 29.9329 8.289 34.8469 14.3438 34.8469H21.285C27.3398 34.8469 32.2537 29.934 32.2537 23.8793C32.265 16.9909 27.4466 11.2298 20.9959 9.78303C21.0224 9.54529 20.9794 9.30497 20.8721 9.09115L23.5384 6.03903L23.7105 5.77353C23.9115 5.33515 23.9629 4.84288 23.8568 4.37243C23.7508 3.90197 23.4931 3.4794 23.1234 3.16968C22.7538 2.85997 22.2926 2.68027 21.8108 2.65822C21.3291 2.63617 20.8534 2.773 20.457 3.04765L19.5086 1.92265C19.2959 1.68458 19.0354 1.49401 18.7441 1.36336C18.4527 1.2327 18.1372 1.1649 17.8179 1.16437C17.4986 1.16384 17.1828 1.23059 16.8911 1.36028C16.5993 1.48996 16.3382 1.67966 16.1246 1.91703L15.1312 3.02628C14.7359 2.74591 14.2591 2.60363 13.7747 2.62144C13.2904 2.63926 12.8254 2.81618 12.4517 3.12483C12.0779 3.43349 11.8163 3.85669 11.7073 4.32896C11.5983 4.80124 11.6479 5.29629 11.8485 5.73753ZM16.1224 7.29565L14.2144 5.09065C14.6577 5.30385 15.1592 5.36429 15.6405 5.26254C16.1218 5.16078 16.5559 4.90255 16.875 4.52815L17.775 3.3604L18.774 4.5439C19.0855 4.90613 19.5057 5.15801 19.9719 5.26201C20.4382 5.36601 20.9256 5.31656 21.3615 5.12103L19.4625 7.29565H16.1224ZM5.625 23.8782C5.625 17.1417 11.0835 11.6832 17.82 11.6832C24.5565 11.6832 30.015 17.1416 30.0037 23.8759V23.8782C30.0029 26.1902 29.084 28.4074 27.4491 30.0422C25.8142 31.6771 23.5971 32.596 21.285 32.5969H14.3438C12.0317 32.596 9.81454 31.6771 8.17965 30.0422C6.54476 28.4074 5.62589 26.1902 5.625 23.8782Z" fill="#B2B80C"/>
</svg>
