<svg width="203" height="204" viewBox="0 0 203 204" fill="none" xmlns="http://www.w3.org/2000/svg">
<path d="M184.727 142.137L6.9621 116.09C6.39696 116.006 5.88823 115.701 5.54772 115.242C5.20721 114.784 5.06277 114.208 5.14612 113.643L19.9512 12.6485C19.9919 12.369 20.0873 12.1002 20.232 11.8576C20.3768 11.615 20.5679 11.4033 20.7945 11.2346C21.0211 11.0659 21.2788 10.9436 21.5527 10.8746C21.8266 10.8056 22.1115 10.7913 22.391 10.8326L25.7595 11.3247C26.1862 11.3887 26.6223 11.3224 27.0106 11.1344C27.399 10.9464 27.7215 10.6455 27.9359 10.2711L32.4066 2.54283C32.5423 2.30019 32.7263 2.08789 32.9472 1.91902C33.9938 1.16223 35.2944 0.843903 36.5722 1.03183L81.3825 7.60261C82.3877 7.74695 83.3242 8.19704 84.0649 8.89181C84.2624 9.08974 84.418 9.32548 84.5223 9.58493L88.5078 19.455C88.6476 19.8041 88.8768 20.1102 89.1725 20.3426C89.4682 20.575 89.8198 20.7255 90.1921 20.7788L200.156 36.9008C200.721 36.9831 201.23 37.2863 201.572 37.7437C201.914 38.2011 202.06 38.7754 201.979 39.3406L187.174 140.328C187.088 140.892 186.782 141.399 186.324 141.738C185.865 142.077 185.291 142.221 184.727 142.137Z" fill="#3079E3" stroke="#3079E3" stroke-miterlimit="10"/>
<path d="M186.618 141.646H10.4197C9.90821 141.646 9.40167 141.545 8.92907 141.349C8.45646 141.154 8.02705 140.867 7.66534 140.505C7.30362 140.143 7.01669 139.714 6.82093 139.241C6.62517 138.769 6.52441 138.262 6.52441 137.751V39.1611C6.52441 38.128 6.93482 37.1372 7.66534 36.4067C8.39585 35.6761 9.38664 35.2657 10.4197 35.2657H10.898C11.6779 35.2642 12.4395 35.0298 13.0853 34.5927C13.7312 34.1556 14.2318 33.5355 14.523 32.8121L17.2054 26.068C17.5052 25.2896 18.0534 24.6319 18.7649 24.1966C19.5293 23.7453 20.4002 23.506 21.2879 23.5035H66.5764C67.185 23.5028 67.7887 23.6132 68.3577 23.8292C69.1482 24.1478 69.8077 24.7243 70.2291 25.465L74.8384 33.3181C75.1819 33.9046 75.6729 34.3911 76.2626 34.7291C76.8524 35.0672 77.5203 35.245 78.2 35.245H186.618C187.651 35.245 188.642 35.6553 189.372 36.3859C190.103 37.1164 190.513 38.1072 190.513 39.1403V137.751C190.513 138.262 190.413 138.769 190.217 139.241C190.021 139.714 189.734 140.143 189.372 140.505C189.011 140.867 188.581 141.154 188.109 141.349C187.636 141.545 187.13 141.646 186.618 141.646Z" fill="#CCE1FF"/>
<mask id="mask0_603_1901" style="mask-type:luminance" maskUnits="userSpaceOnUse" x="6" y="23" width="185" height="119">
<path d="M186.62 141.645H10.4217C9.91016 141.645 9.40363 141.544 8.93102 141.348C8.45842 141.152 8.029 140.865 7.66729 140.504C7.30557 140.142 7.01864 139.713 6.82288 139.24C6.62712 138.767 6.52637 138.261 6.52637 137.749V39.1597C6.52637 38.1266 6.93677 37.1358 7.66729 36.4053C8.39781 35.6748 9.38859 35.2644 10.4217 35.2644H10.9C11.6798 35.2629 12.4415 35.0285 13.0873 34.5914C13.7331 34.1542 14.2337 33.5342 14.525 32.8108L17.2074 26.0667C17.5072 25.2883 18.0553 24.6305 18.7669 24.1953C19.5313 23.7439 20.4022 23.5047 21.2898 23.5021H66.5784C67.187 23.5015 67.7907 23.6119 68.3597 23.8279C69.1501 24.1464 69.8097 24.7229 70.2311 25.4637L74.8403 33.3167C75.1838 33.9033 75.6749 34.3898 76.2646 34.7278C76.8543 35.0658 77.5222 35.2437 78.202 35.2436H186.62C187.653 35.2436 188.644 35.654 189.374 36.3845C190.105 37.115 190.515 38.1058 190.515 39.1389V137.749C190.515 138.261 190.415 138.767 190.219 139.24C190.023 139.713 189.736 140.142 189.374 140.504C189.013 140.865 188.583 141.152 188.111 141.348C187.638 141.544 187.132 141.645 186.62 141.645Z" fill="white"/>
</mask>
<g mask="url(#mask0_603_1901)">
<path opacity="0.1" d="M186.62 141.645H10.4217C9.91016 141.645 9.40363 141.544 8.93102 141.348C8.45842 141.152 8.029 140.865 7.66729 140.504C7.30557 140.142 7.01864 139.713 6.82288 139.24C6.62712 138.767 6.52637 138.261 6.52637 137.749V39.1597C6.52637 38.1266 6.93677 37.1358 7.66729 36.4053C8.39781 35.6748 9.38859 35.2644 10.4217 35.2644H10.9C11.6798 35.2629 12.4415 35.0285 13.0873 34.5914C13.7331 34.1542 14.2337 33.5342 14.525 32.8108L17.2074 26.0667C17.5072 25.2883 18.0553 24.6305 18.7669 24.1953C19.5313 23.7439 20.4022 23.5047 21.2898 23.5021H66.5784C67.187 23.5015 67.7907 23.6119 68.3597 23.8279C69.1501 24.1464 69.8097 24.7229 70.2311 25.4637L74.8403 33.3167C75.1838 33.9033 75.6749 34.3898 76.2646 34.7278C76.8543 35.0658 77.5222 35.2437 78.202 35.2436H186.62C187.653 35.2436 188.644 35.654 189.374 36.3845C190.105 37.115 190.515 38.1058 190.515 39.1389V137.749C190.515 138.261 190.415 138.767 190.219 139.24C190.023 139.713 189.736 140.142 189.374 140.504C189.013 140.865 188.583 141.152 188.111 141.348C187.638 141.544 187.132 141.645 186.62 141.645Z" fill="#3079E3"/>
</g>
<path d="M186.618 141.646H10.4197C9.90821 141.646 9.40167 141.545 8.92907 141.349C8.45646 141.154 8.02705 140.867 7.66534 140.505C7.30362 140.143 7.01669 139.714 6.82093 139.241C6.62517 138.769 6.52441 138.262 6.52441 137.751V39.1611C6.52441 38.128 6.93482 37.1372 7.66534 36.4067C8.39585 35.6761 9.38664 35.2657 10.4197 35.2657H10.898C11.6779 35.2642 12.4395 35.0298 13.0853 34.5927C13.7312 34.1556 14.2318 33.5355 14.523 32.8121L17.2054 26.068C17.5052 25.2896 18.0534 24.6319 18.7649 24.1966C19.5293 23.7453 20.4002 23.506 21.2879 23.5035H66.5764C67.185 23.5028 67.7887 23.6132 68.3577 23.8292C69.1482 24.1478 69.8077 24.7243 70.2291 25.465L74.8384 33.3181C75.1819 33.9046 75.6729 34.3911 76.2626 34.7291C76.8524 35.0672 77.5203 35.245 78.2 35.245H186.618C187.651 35.245 188.642 35.6553 189.372 36.3859C190.103 37.1164 190.513 38.1072 190.513 39.1403V137.751C190.513 138.262 190.413 138.769 190.217 139.241C190.021 139.714 189.734 140.143 189.372 140.505C189.011 140.867 188.581 141.154 188.109 141.349C187.636 141.545 187.13 141.646 186.618 141.646Z" stroke="#3079E3" stroke-miterlimit="10"/>
<path d="M56.3131 34.9324H28.1169C27.4441 34.9324 26.7989 34.6652 26.3231 34.1894C25.8474 33.7137 25.5801 33.0684 25.5801 32.3956C25.5792 32.0619 25.6441 31.7313 25.7712 31.4227C25.8983 31.1141 26.085 30.8336 26.3207 30.5973C26.5563 30.361 26.8363 30.1736 27.1445 30.0456C27.4527 29.9177 27.7832 29.8519 28.1169 29.8519H56.3131C56.9877 29.8519 57.6347 30.1199 58.1118 30.5969C58.5888 31.074 58.8568 31.721 58.8568 32.3956C58.8568 32.7293 58.791 33.0598 58.6631 33.368C58.5351 33.6763 58.3477 33.9562 58.1114 34.1919C57.8751 34.4275 57.5946 34.6143 57.286 34.7413C56.9774 34.8684 56.6468 34.9334 56.3131 34.9324Z" fill="white"/>
<path d="M186.618 158.849H10.4197C9.38664 158.849 8.39585 158.439 7.66534 157.708C6.93482 156.978 6.52441 155.987 6.52441 154.954V56.3642C6.52441 55.3311 6.93482 54.3403 7.66534 53.6098C8.39585 52.8793 9.38664 52.4689 10.4197 52.4689H10.898C11.6781 52.4683 12.4401 52.2343 13.0862 51.797C13.7322 51.3598 14.2326 50.7392 14.523 50.0152L17.2054 43.2781C17.5034 42.4987 18.052 41.8404 18.7649 41.4067C19.5281 40.9525 20.3998 40.7131 21.2879 40.7136H66.5764C67.185 40.7129 67.7887 40.8233 68.3577 41.0393C69.1501 41.3582 69.8102 41.9376 70.2291 42.682L74.8384 50.542C75.1819 51.1286 75.6729 51.615 76.2626 51.9531C76.8524 52.2911 77.5203 52.4689 78.2 52.4689H186.618C187.651 52.4689 188.642 52.8793 189.372 53.6098C190.103 54.3403 190.513 55.3311 190.513 56.3642V154.954C190.513 155.987 190.103 156.978 189.372 157.708C188.642 158.439 187.651 158.849 186.618 158.849Z" fill="#3079E3" stroke="#3079E3" stroke-miterlimit="10"/>
<path d="M69.8209 14.6032L41.8465 11.1376C41.1783 11.0527 40.5708 10.707 40.1566 10.1759C39.7424 9.64484 39.555 8.97145 39.6354 8.30273C39.7202 7.63369 40.0671 7.02567 40.6 6.61235C41.1329 6.19904 41.8081 6.01424 42.4772 6.0986L70.4447 9.56421C71.1136 9.64733 71.7222 9.99258 72.1368 10.5241C72.5514 11.0557 72.738 11.73 72.6557 12.3991C72.6146 12.7301 72.5086 13.0497 72.3438 13.3397C72.179 13.6297 71.9587 13.8843 71.6954 14.089C71.4321 14.2937 71.131 14.4445 70.8093 14.5328C70.4877 14.621 70.1518 14.6449 69.8209 14.6032Z" fill="#CCE1FF"/>
<path opacity="0.5" d="M69.8209 14.6032L41.8465 11.1376C41.1783 11.0527 40.5708 10.707 40.1566 10.1759C39.7424 9.64484 39.555 8.97145 39.6354 8.30273C39.7202 7.63369 40.0671 7.02567 40.6 6.61235C41.1329 6.19904 41.8081 6.01424 42.4772 6.0986L70.4447 9.56421C71.1136 9.64733 71.7222 9.99258 72.1368 10.5241C72.5514 11.0557 72.738 11.73 72.6557 12.3991C72.6146 12.7301 72.5086 13.0497 72.3438 13.3397C72.179 13.6297 71.9587 13.8843 71.6954 14.089C71.4321 14.2937 71.131 14.4445 70.8093 14.5328C70.4877 14.621 70.1518 14.6449 69.8209 14.6032Z" fill="white"/>
<path d="M56.3131 52.1416H28.1169C27.7832 52.1416 27.4527 52.0757 27.1445 51.9478C26.8363 51.8199 26.5563 51.6324 26.3207 51.3961C26.085 51.1598 25.8983 50.8793 25.7712 50.5708C25.6441 50.2622 25.5792 49.9316 25.5801 49.5978C25.5801 48.9244 25.8471 48.2784 26.3227 47.8016C26.7982 47.3247 27.4435 47.0559 28.1169 47.0541H56.3131C56.9877 47.0541 57.6347 47.3221 58.1118 47.7991C58.5888 48.2762 58.8568 48.9232 58.8568 49.5978C58.8568 50.2725 58.5888 50.9195 58.1118 51.3965C57.6347 51.8736 56.9877 52.1416 56.3131 52.1416Z" fill="#CCE1FF"/>
<path opacity="0.5" d="M56.3131 52.1416H28.1169C27.7832 52.1416 27.4527 52.0757 27.1445 51.9478C26.8363 51.8199 26.5563 51.6324 26.3207 51.3961C26.085 51.1598 25.8983 50.8793 25.7712 50.5708C25.6441 50.2622 25.5792 49.9316 25.5801 49.5978C25.5801 48.9244 25.8471 48.2784 26.3227 47.8016C26.7982 47.3247 27.4435 47.0559 28.1169 47.0541H56.3131C56.9877 47.0541 57.6347 47.3221 58.1118 47.7991C58.5888 48.2762 58.8568 48.9232 58.8568 49.5978C58.8568 50.2725 58.5888 50.9195 58.1118 51.3965C57.6347 51.8736 56.9877 52.1416 56.3131 52.1416Z" fill="white"/>
<path d="M192.379 82.1198H4.65373C2.63637 82.1198 1.00098 83.7552 1.00098 85.7726V199.368C1.00098 201.385 2.63637 203.021 4.65373 203.021H192.379C194.396 203.021 196.031 201.385 196.031 199.368V85.7726C196.031 83.7552 194.396 82.1198 192.379 82.1198Z" fill="white"/>
<mask id="mask1_603_1901" style="mask-type:luminance" maskUnits="userSpaceOnUse" x="1" y="82" width="196" height="122">
<path d="M192.38 82.1189H4.6547C2.63735 82.1189 1.00195 83.7543 1.00195 85.7716V199.367C1.00195 201.385 2.63735 203.02 4.6547 203.02H192.38C194.397 203.02 196.032 201.385 196.032 199.367V85.7716C196.032 83.7543 194.397 82.1189 192.38 82.1189Z" fill="white"/>
</mask>
<g mask="url(#mask1_603_1901)">
<g style="mix-blend-mode:multiply">
<path d="M196.031 114.66C174.413 134.865 149.85 151.669 123.184 164.496C83.7806 183.342 38.7416 196.331 12.5 203.019H192.372C192.852 203.02 193.328 202.926 193.772 202.743C194.216 202.56 194.619 202.291 194.959 201.952C195.299 201.613 195.569 201.21 195.753 200.766C195.937 200.322 196.031 199.847 196.031 199.367V114.66Z" fill="#CCE1FF"/>
</g>
<path opacity="0.2" d="M196.031 114.66C174.413 134.865 149.85 151.669 123.184 164.496C83.7806 183.342 38.7416 196.331 12.5 203.019H192.372C192.852 203.02 193.328 202.926 193.772 202.743C194.216 202.56 194.619 202.291 194.959 201.952C195.299 201.613 195.569 201.21 195.753 200.766C195.937 200.322 196.031 199.847 196.031 199.367V114.66Z" fill="white"/>
</g>
<path d="M192.379 82.1198H4.65373C2.63637 82.1198 1.00098 83.7552 1.00098 85.7726V199.368C1.00098 201.385 2.63637 203.021 4.65373 203.021H192.379C194.396 203.021 196.031 201.385 196.031 199.368V85.7726C196.031 83.7552 194.396 82.1198 192.379 82.1198Z" stroke="#3079E3" stroke-miterlimit="10"/>
<path d="M3.82324 92.7388V87.8869C3.82508 86.9175 4.21146 85.9885 4.89759 85.3036C5.58371 84.6188 6.51352 84.2342 7.48292 84.2342H15.4192" stroke="#3079E3" stroke-miterlimit="10"/>
<path d="M3.82324 166.425V98.6515" stroke="#3079E3" stroke-miterlimit="10"/>
<path d="M193.204 189.547V197.22C193.204 197.7 193.111 198.176 192.928 198.62C192.744 199.064 192.475 199.468 192.136 199.808C191.797 200.147 191.394 200.417 190.95 200.601C190.507 200.785 190.031 200.88 189.551 200.88H183.153" stroke="#3079E3" stroke-miterlimit="10"/>
<path d="M193.205 91.0331V183.842" stroke="#3079E3" stroke-miterlimit="10"/>
<path d="M20.1318 28.9777L17.7197 25.8102" stroke="#3079E3" stroke-width="0.5" stroke-linecap="round" stroke-linejoin="round"/>
<path d="M18.7174 29.0899L16.8252 26.5808" stroke="#3079E3" stroke-width="0.5" stroke-linecap="round" stroke-linejoin="round"/>
</svg>
