<svg width="37" height="36" viewBox="0 0 37 36" fill="none" xmlns="http://www.w3.org/2000/svg">
<g clip-path="url(#clip0_326_679)">
<path d="M9.99083 35.4257C12.5243 36.1091 15.1844 36.1091 18.4958 35.3981C18.0552 35.065 17.6603 34.6754 17.3213 34.2394C16.4596 33.1504 16.5771 31.6491 17.5553 30.5376C17.0271 29.7197 16.8578 28.7224 17.1824 27.7903C17.2544 27.5895 17.3511 27.3954 17.4653 27.2115C17.6793 26.8349 17.953 26.4956 18.2759 26.2069C18.2118 26.1748 18.1386 26.1473 18.0779 26.1152C18.002 26.073 17.9361 26.0179 17.8641 25.9734C15.8431 28.5564 12.8382 30.3289 9.34789 30.7491L9.21626 30.7592C8.67514 30.7592 8.24201 30.339 8.20714 29.7849C8.1878 29.5233 8.27018 29.2643 8.43712 29.062C8.60406 28.8596 8.84267 28.7295 9.1032 28.6988C12.2301 28.323 14.8441 26.7272 16.5153 24.3726C16.2616 23.7285 16.2284 23.0181 16.472 22.3391C16.6025 21.969 16.8252 21.6281 17.1025 21.3244C17.1408 21.2721 17.1734 21.2181 17.2167 21.1663C16.261 20.7208 15.7947 19.9845 15.5759 19.3258C15.077 17.8268 15.7188 16.4025 17.3163 15.3658C17.4648 15.2387 17.6166 15.1121 17.7719 14.9957C16.6778 15.0536 15.6535 14.8399 14.8137 14.2673L14.0701 13.7627L14.9903 13.0742C15.1135 12.9746 15.2294 12.8807 15.383 12.8081C16.9551 12.0623 17.8085 10.8242 17.9935 9.02363C18.2995 6.0272 17.7775 3.74795 16.3527 1.84895C15.9353 1.29207 15.2564 0.754885 14.4948 0.376885C14.2641 0.26326 14.0431 0.205322 13.822 0.205322C13.336 0.205322 12.8101 0.469135 12.1176 1.05638C11.5776 1.50807 11.5737 1.99801 11.7689 2.92782C11.8308 3.21976 11.9331 3.53251 12.0878 3.91276C13.0041 6.12282 12.62 8.32839 10.9763 10.2926C9.65333 11.8789 8.5362 12.9594 7.35439 13.7976C3.48045 16.5471 2.08376 20.1021 3.08951 24.6617C3.33364 25.7732 3.5412 26.8898 3.74764 28.0052L3.9237 28.9569C4.56889 32.3809 6.55451 34.4964 9.99251 35.4263" fill="#3079E3"/>
<path d="M27.711 13.2469C27.6008 13.2469 27.49 13.2474 27.3758 13.2587C26.4972 13.3313 25.6219 13.5355 24.9115 13.8381C23.0811 14.616 20.9402 15.5599 18.9237 16.6393C17.6907 17.3014 17.1872 18 17.4257 18.7133C17.5573 19.1065 17.9044 19.6256 19.4085 19.6256C19.6065 19.6256 19.8034 19.6183 19.9992 19.6037C22.3077 19.4299 25.2642 19.5441 26.7295 19.1081C28.1959 18.6739 28.3917 18.3353 28.5643 18.2661C29.9172 17.6979 30.7097 16.3783 30.442 15.228C30.1686 14.0501 29.1223 13.2469 27.711 13.2469ZM30.3643 19.7213C30.2854 19.7073 30.2054 19.7007 30.1253 19.7016C29.9723 19.7016 29.8615 19.7263 29.8086 19.7483C27.1513 20.9076 24.1555 21.5365 20.3822 21.7294C19.4788 21.775 18.4978 22.3285 18.2419 22.9405C18.0045 23.5086 18.2813 24.0812 18.9523 24.4097C19.3478 24.606 19.8388 24.7652 20.3721 24.8693C20.9863 24.9913 21.933 25.0554 23.1092 25.0554C25.6725 25.0554 28.6442 24.75 30.024 24.3444C31.5591 23.8894 32.4518 22.972 32.4709 21.8278C32.4861 20.7821 31.639 19.9356 30.3643 19.7213ZM30.8706 26.9758C27.6542 27.5203 24.4367 27.5873 21.3267 27.1671C21.2256 27.1536 21.1237 27.147 21.0218 27.1474C20.1567 27.1474 19.2752 27.625 18.9715 28.2561C18.6598 28.9103 18.9979 29.6837 19.7573 30.0493C21.8205 31.0337 24.1532 31.1085 26.6232 31.1873L27.0675 31.1996C27.6638 31.2221 28.287 31.1946 28.7415 31.1749L29.1133 31.1625C30.55 30.8098 31.6474 29.9818 31.986 28.9901C32.2077 28.3455 32.0878 27.7144 31.6446 27.1626C31.4061 26.869 31.2413 26.9083 30.8706 26.9758ZM19.1357 31.8482C18.8348 32.2903 18.805 32.7909 19.0823 33.1532C19.461 33.6606 19.8435 34.0286 20.2298 34.2574C21.8593 35.2299 23.8017 35.8009 26.1732 36.0073C27.3612 36.1165 28.3894 35.766 29.1578 34.9853C29.7512 34.3789 29.9717 33.7899 29.8401 33.1262C25.5162 33.5166 22.1614 33.1065 19.1357 31.8482Z" fill="#3079E3"/>
</g>
<defs>
<clipPath id="clip0_326_679">
<rect width="36" height="36" fill="white" transform="translate(0.333008)"/>
</clipPath>
</defs>
</svg>
